solid OpenSCAD_Model
  facet normal 0 0 1
    outer loop
      vertex 23 19.0514 20
      vertex 21.9907 18.1396 20
      vertex 22 18.0514 20
    endloop
  endfacet
  facet normal 0 0 1
    outer loop
      vertex 22.6677 20.1337 20
      vertex 21.6677 19.1337 20
      vertex 21.9907 18.1396 20
    endloop
  endfacet
  facet normal 0 0 1
    outer loop
      vertex 20.4457 20.8157 20
      vertex 22.1451 21.0389 20
      vertex 21.4457 21.8157 20
    endloop
  endfacet
  facet normal 0 0 1
    outer loop
      vertex 22.6677 20.1337 20
      vertex 21.1451 20.0389 20
      vertex 21.6677 19.1337 20
    endloop
  endfacet
  facet normal 0 0 1
    outer loop
      vertex 20.4457 20.8157 20
      vertex 21.4457 21.8157 20
      vertex 20.6 22.4301 20
    endloop
  endfacet
  facet normal 0 0 1
    outer loop
      vertex 22.1451 21.0389 20
      vertex 20.4457 20.8157 20
      vertex 21.1451 20.0389 20
    endloop
  endfacet
  facet normal 0 0 1
    outer loop
      vertex 19.6 21.4301 20
      vertex 20.6 22.4301 20
      vertex 19.6451 22.8553 20
    endloop
  endfacet
  facet normal 0 0 1
    outer loop
      vertex 20.6 22.4301 20
      vertex 19.6 21.4301 20
      vertex 20.4457 20.8157 20
    endloop
  endfacet
  facet normal 0 0 1
    outer loop
      vertex 18.6451 21.8553 20
      vertex 19.6451 22.8553 20
      vertex 18.9642 23 20
    endloop
  endfacet
  facet normal 0 0 1
    outer loop
      vertex 19.6451 22.8553 20
      vertex 18.6451 21.8553 20
      vertex 19.6 21.4301 20
    endloop
  endfacet
  facet normal 0 0 1
    outer loop
      vertex 18.9642 23 20
      vertex 17.9642 22 20
      vertex 18.6451 21.8553 20
    endloop
  endfacet
  facet normal 0 0 1
    outer loop
      vertex 18.9642 23 20
      vertex 4.94857 22 20
      vertex 17.9642 22 20
    endloop
  endfacet
  facet normal -0 0 1
    outer loop
      vertex 3.94857 23 20
      vertex 4.94857 22 20
      vertex 18.9642 23 20
    endloop
  endfacet
  facet normal 0 0 1
    outer loop
      vertex 3.94857 23 20
      vertex 4.86044 21.9907 20
      vertex 4.94857 22 20
    endloop
  endfacet
  facet normal 0 0 1
    outer loop
      vertex 3.94857 23 20
      vertex 3.86632 21.6677 20
      vertex 4.86044 21.9907 20
    endloop
  endfacet
  facet normal -0 0 1
    outer loop
      vertex 3.86044 22.9907 20
      vertex 3.86632 21.6677 20
      vertex 3.94857 23 20
    endloop
  endfacet
  facet normal -0 0 1
    outer loop
      vertex 2.86632 22.6677 20
      vertex 3.86632 21.6677 20
      vertex 3.86044 22.9907 20
    endloop
  endfacet
  facet normal 0 0 1
    outer loop
      vertex 3.86632 21.6677 20
      vertex 2.86632 22.6677 20
      vertex 2.96107 21.1451 20
    endloop
  endfacet
  facet normal -0 0 1
    outer loop
      vertex 1.96107 22.1451 20
      vertex 2.96107 21.1451 20
      vertex 2.86632 22.6677 20
    endloop
  endfacet
  facet normal 0 0 1
    outer loop
      vertex 2.96107 21.1451 20
      vertex 1.96107 22.1451 20
      vertex 2.18428 20.4457 20
    endloop
  endfacet
  facet normal -0 0 1
    outer loop
      vertex 1.18428 21.4457 20
      vertex 2.18428 20.4457 20
      vertex 1.96107 22.1451 20
    endloop
  endfacet
  facet normal -0 0 1
    outer loop
      vertex 0.569873 20.6 20
      vertex 2.18428 20.4457 20
      vertex 1.18428 21.4457 20
    endloop
  endfacet
  facet normal 0 0 1
    outer loop
      vertex 2.18428 20.4457 20
      vertex 0.569873 20.6 20
      vertex 1.56987 19.6 20
    endloop
  endfacet
  facet normal -0 0 1
    outer loop
      vertex 0.144718 19.6451 20
      vertex 1.56987 19.6 20
      vertex 0.569873 20.6 20
    endloop
  endfacet
  facet normal 0 0 1
    outer loop
      vertex 0 3.94857 20
      vertex 1 4.94857 20
      vertex 1 17.9642 20
    endloop
  endfacet
  facet normal 0 0 1
    outer loop
      vertex 1.56987 19.6 20
      vertex 0.144718 19.6451 20
      vertex 1.14472 18.6451 20
    endloop
  endfacet
  facet normal -0 0 1
    outer loop
      vertex 0 18.9642 20
      vertex 1.14472 18.6451 20
      vertex 0.144718 19.6451 20
    endloop
  endfacet
  facet normal 0 0 1
    outer loop
      vertex 0 3.94857 20
      vertex 1 17.9642 20
      vertex 0 18.9642 20
    endloop
  endfacet
  facet normal 0 0 1
    outer loop
      vertex 1.14472 18.6451 20
      vertex 0 18.9642 20
      vertex 1 17.9642 20
    endloop
  endfacet
  facet normal 0 -0 1
    outer loop
      vertex 0.00926247 3.86044 20
      vertex 1 4.94857 20
      vertex 0 3.94857 20
    endloop
  endfacet
  facet normal 0 0 1
    outer loop
      vertex 1 4.94857 20
      vertex 0.332273 2.86632 20
      vertex 0.854915 1.96107 20
    endloop
  endfacet
  facet normal 0 0 1
    outer loop
      vertex 1 4.94857 20
      vertex 0.00926247 3.86044 20
      vertex 0.332273 2.86632 20
    endloop
  endfacet
  facet normal 0 0 1
    outer loop
      vertex 21.9907 18.1396 20
      vertex 23 19.0514 20
      vertex 22.9907 19.1396 20
    endloop
  endfacet
  facet normal 0 0 1
    outer loop
      vertex 23 19.0514 20
      vertex 22 18.0514 20
      vertex 23 4.03576 20
    endloop
  endfacet
  facet normal 0 0 1
    outer loop
      vertex 21.9907 18.1396 20
      vertex 22.9907 19.1396 20
      vertex 22.6677 20.1337 20
    endloop
  endfacet
  facet normal 0 0 1
    outer loop
      vertex 23 4.03576 20
      vertex 22 18.0514 20
      vertex 22 5.03576 20
    endloop
  endfacet
  facet normal 0 0 1
    outer loop
      vertex 21.1451 20.0389 20
      vertex 22.6677 20.1337 20
      vertex 22.1451 21.0389 20
    endloop
  endfacet
  facet normal -0 0 1
    outer loop
      vertex 21.8553 4.35492 20
      vertex 23 4.03576 20
      vertex 22 5.03576 20
    endloop
  endfacet
  facet normal 0 0 1
    outer loop
      vertex 23 4.03576 20
      vertex 21.8553 4.35492 20
      vertex 22.8553 3.35492 20
    endloop
  endfacet
  facet normal -0 0 1
    outer loop
      vertex 21.4301 3.4 20
      vertex 22.8553 3.35492 20
      vertex 21.8553 4.35492 20
    endloop
  endfacet
  facet normal 0 0 1
    outer loop
      vertex 22.8553 3.35492 20
      vertex 21.4301 3.4 20
      vertex 22.4301 2.4 20
    endloop
  endfacet
  facet normal -0 0 1
    outer loop
      vertex 20.8157 2.55435 20
      vertex 22.4301 2.4 20
      vertex 21.4301 3.4 20
    endloop
  endfacet
  facet normal 0 0 1
    outer loop
      vertex 22.4301 2.4 20
      vertex 20.8157 2.55435 20
      vertex 21.8157 1.55435 20
    endloop
  endfacet
  facet normal 0 0 1
    outer loop
      vertex 21.8157 1.55435 20
      vertex 20.8157 2.55435 20
      vertex 21.0389 0.854915 20
    endloop
  endfacet
  facet normal -0 0 1
    outer loop
      vertex 20.0389 1.85492 20
      vertex 21.0389 0.854915 20
      vertex 20.8157 2.55435 20
    endloop
  endfacet
  facet normal 0 0 1
    outer loop
      vertex 21.0389 0.854915 20
      vertex 20.0389 1.85492 20
      vertex 20.1337 0.332273 20
    endloop
  endfacet
  facet normal -0 0 1
    outer loop
      vertex 19.1337 1.33227 20
      vertex 20.1337 0.332273 20
      vertex 20.0389 1.85492 20
    endloop
  endfacet
  facet normal 0 0 1
    outer loop
      vertex 20.1337 0.332273 20
      vertex 19.1337 1.33227 20
      vertex 19.1396 0.00926247 20
    endloop
  endfacet
  facet normal 0 0 1
    outer loop
      vertex 19.1337 1.33227 20
      vertex 19.0514 0 20
      vertex 19.1396 0.00926247 20
    endloop
  endfacet
  facet normal -0 0 1
    outer loop
      vertex 18.1396 1.00926 20
      vertex 19.0514 0 20
      vertex 19.1337 1.33227 20
    endloop
  endfacet
  facet normal -0 0 1
    outer loop
      vertex 18.0514 1 20
      vertex 19.0514 0 20
      vertex 18.1396 1.00926 20
    endloop
  endfacet
  facet normal -0 0 1
    outer loop
      vertex 5.03576 1 20
      vertex 19.0514 0 20
      vertex 18.0514 1 20
    endloop
  endfacet
  facet normal 0 0 1
    outer loop
      vertex 5.03576 1 20
      vertex 4.03576 0 20
      vertex 19.0514 0 20
    endloop
  endfacet
  facet normal 0 0 1
    outer loop
      vertex 4.35492 1.14472 20
      vertex 4.03576 0 20
      vertex 5.03576 1 20
    endloop
  endfacet
  facet normal 0 0 1
    outer loop
      vertex 3.35492 0.144718 20
      vertex 4.35492 1.14472 20
      vertex 3.4 1.56987 20
    endloop
  endfacet
  facet normal 0 0 1
    outer loop
      vertex 4.35492 1.14472 20
      vertex 3.35492 0.144718 20
      vertex 4.03576 0 20
    endloop
  endfacet
  facet normal 0 0 1
    outer loop
      vertex 2.4 0.569873 20
      vertex 3.4 1.56987 20
      vertex 2.55435 2.18428 20
    endloop
  endfacet
  facet normal 0 0 1
    outer loop
      vertex 3.4 1.56987 20
      vertex 2.4 0.569873 20
      vertex 3.35492 0.144718 20
    endloop
  endfacet
  facet normal 0 0 1
    outer loop
      vertex 0.854915 1.96107 20
      vertex 2.55435 2.18428 20
      vertex 1.85492 2.96107 20
    endloop
  endfacet
  facet normal 0 0 1
    outer loop
      vertex 2.55435 2.18428 20
      vertex 1.55435 1.18428 20
      vertex 2.4 0.569873 20
    endloop
  endfacet
  facet normal 0 0 1
    outer loop
      vertex 0.854915 1.96107 20
      vertex 1.85492 2.96107 20
      vertex 1.33227 3.86632 20
    endloop
  endfacet
  facet normal 0 0 1
    outer loop
      vertex 0.854915 1.96107 20
      vertex 1.33227 3.86632 20
      vertex 1.00926 4.86044 20
    endloop
  endfacet
  facet normal 0 0 1
    outer loop
      vertex 2.55435 2.18428 20
      vertex 0.854915 1.96107 20
      vertex 1.55435 1.18428 20
    endloop
  endfacet
  facet normal 0 0 1
    outer loop
      vertex 0.854915 1.96107 20
      vertex 1.00926 4.86044 20
      vertex 1 4.94857 20
    endloop
  endfacet
  facet normal 0 0 -1
    outer loop
      vertex 18.9642 23 0
      vertex 23 19.0514 0
      vertex 23 4.03576 0
    endloop
  endfacet
  facet normal 0 0 -1
    outer loop
      vertex 22.4301 2.4 0
      vertex 23 4.03576 0
      vertex 22.8553 3.35492 0
    endloop
  endfacet
  facet normal 0 0 -1
    outer loop
      vertex 4.03576 0 0
      vertex 23 4.03576 0
      vertex 19.0514 0 0
    endloop
  endfacet
  facet normal 0 0 -1
    outer loop
      vertex 23 4.03576 0
      vertex 22.4301 2.4 0
      vertex 19.0514 0 0
    endloop
  endfacet
  facet normal -0 -0 -1
    outer loop
      vertex 22.6677 20.1337 0
      vertex 23 19.0514 0
      vertex 18.9642 23 0
    endloop
  endfacet
  facet normal 0 0 -1
    outer loop
      vertex 19.0514 0 0
      vertex 22.4301 2.4 0
      vertex 21.8157 1.55435 0
    endloop
  endfacet
  facet normal 0 0 -1
    outer loop
      vertex 23 19.0514 0
      vertex 22.6677 20.1337 0
      vertex 22.9907 19.1396 0
    endloop
  endfacet
  facet normal 0 0 -1
    outer loop
      vertex 19.0514 0 0
      vertex 21.8157 1.55435 0
      vertex 21.0389 0.854915 0
    endloop
  endfacet
  facet normal 0 0 -1
    outer loop
      vertex 22.6677 20.1337 0
      vertex 18.9642 23 0
      vertex 22.1451 21.0389 0
    endloop
  endfacet
  facet normal 0 0 -1
    outer loop
      vertex 19.0514 0 0
      vertex 21.0389 0.854915 0
      vertex 20.1337 0.332273 0
    endloop
  endfacet
  facet normal 0 0 -1
    outer loop
      vertex 22.1451 21.0389 0
      vertex 18.9642 23 0
      vertex 21.4457 21.8157 0
    endloop
  endfacet
  facet normal 0 0 -1
    outer loop
      vertex 19.0514 0 0
      vertex 20.1337 0.332273 0
      vertex 19.1396 0.00926247 0
    endloop
  endfacet
  facet normal 0 0 -1
    outer loop
      vertex 21.4457 21.8157 0
      vertex 18.9642 23 0
      vertex 20.6 22.4301 0
    endloop
  endfacet
  facet normal 0 0 -1
    outer loop
      vertex 20.6 22.4301 0
      vertex 18.9642 23 0
      vertex 19.6451 22.8553 0
    endloop
  endfacet
  facet normal -0 0 -1
    outer loop
      vertex 23 4.03576 0
      vertex 4.03576 0 0
      vertex 18.9642 23 0
    endloop
  endfacet
  facet normal 0 0 -1
    outer loop
      vertex 0 18.9642 0
      vertex 18.9642 23 0
      vertex 4.03576 0 0
    endloop
  endfacet
  facet normal -0 0 -1
    outer loop
      vertex 18.9642 23 0
      vertex 0 18.9642 0
      vertex 3.94857 23 0
    endloop
  endfacet
  facet normal 0 0 -1
    outer loop
      vertex 2.4 0.569873 0
      vertex 4.03576 0 0
      vertex 3.35492 0.144718 0
    endloop
  endfacet
  facet normal 0 0 -1
    outer loop
      vertex 0 18.9642 0
      vertex 4.03576 0 0
      vertex 0 3.94857 0
    endloop
  endfacet
  facet normal 0 0 -1
    outer loop
      vertex 4.03576 0 0
      vertex 2.4 0.569873 0
      vertex 0 3.94857 0
    endloop
  endfacet
  facet normal 0 -0 -1
    outer loop
      vertex 2.86632 22.6677 0
      vertex 3.94857 23 0
      vertex 0 18.9642 0
    endloop
  endfacet
  facet normal 0 0 -1
    outer loop
      vertex 0 3.94857 0
      vertex 2.4 0.569873 0
      vertex 1.55435 1.18428 0
    endloop
  endfacet
  facet normal 0 0 -1
    outer loop
      vertex 3.94857 23 0
      vertex 2.86632 22.6677 0
      vertex 3.86044 22.9907 0
    endloop
  endfacet
  facet normal 0 0 -1
    outer loop
      vertex 0 3.94857 0
      vertex 1.55435 1.18428 0
      vertex 0.854915 1.96107 0
    endloop
  endfacet
  facet normal 0 0 -1
    outer loop
      vertex 2.86632 22.6677 0
      vertex 0 18.9642 0
      vertex 1.96107 22.1451 0
    endloop
  endfacet
  facet normal 0 0 -1
    outer loop
      vertex 0 3.94857 0
      vertex 0.854915 1.96107 0
      vertex 0.332273 2.86632 0
    endloop
  endfacet
  facet normal 0 0 -1
    outer loop
      vertex 1.96107 22.1451 0
      vertex 0 18.9642 0
      vertex 1.18428 21.4457 0
    endloop
  endfacet
  facet normal 0 0 -1
    outer loop
      vertex 0 3.94857 0
      vertex 0.332273 2.86632 0
      vertex 0.00926247 3.86044 0
    endloop
  endfacet
  facet normal 0 0 -1
    outer loop
      vertex 1.18428 21.4457 0
      vertex 0 18.9642 0
      vertex 0.569873 20.6 0
    endloop
  endfacet
  facet normal 0 0 -1
    outer loop
      vertex 0.569873 20.6 0
      vertex 0 18.9642 0
      vertex 0.144718 19.6451 0
    endloop
  endfacet
  facet normal -0.866025 -0.5 0
    outer loop
      vertex 0.854915 1.96107 0
      vertex 0.332273 2.86632 20
      vertex 0.332273 2.86632 0
    endloop
  endfacet
  facet normal -0.866025 -0.5 0
    outer loop
      vertex 0.332273 2.86632 20
      vertex 0.854915 1.96107 0
      vertex 0.854915 1.96107 20
    endloop
  endfacet
  facet normal -0.743145 -0.669131 0
    outer loop
      vertex 1.55435 1.18428 0
      vertex 0.854915 1.96107 20
      vertex 0.854915 1.96107 0
    endloop
  endfacet
  facet normal -0.743145 -0.669131 0
    outer loop
      vertex 0.854915 1.96107 20
      vertex 1.55435 1.18428 0
      vertex 1.55435 1.18428 20
    endloop
  endfacet
  facet normal -0.207911 -0.978148 0
    outer loop
      vertex 3.35492 0.144718 0
      vertex 4.03576 0 20
      vertex 3.35492 0.144718 20
    endloop
  endfacet
  facet normal -0.207911 -0.978148 -0
    outer loop
      vertex 4.03576 0 20
      vertex 3.35492 0.144718 0
      vertex 4.03576 0 0
    endloop
  endfacet
  facet normal -0.951057 -0.309017 0
    outer loop
      vertex 0.332273 2.86632 0
      vertex 0.00926247 3.86044 20
      vertex 0.00926247 3.86044 0
    endloop
  endfacet
  facet normal -0.951057 -0.309017 0
    outer loop
      vertex 0.00926247 3.86044 20
      vertex 0.332273 2.86632 0
      vertex 0.332273 2.86632 20
    endloop
  endfacet
  facet normal -0.587785 -0.809017 0
    outer loop
      vertex 1.55435 1.18428 0
      vertex 2.4 0.569873 20
      vertex 1.55435 1.18428 20
    endloop
  endfacet
  facet normal -0.587785 -0.809017 -0
    outer loop
      vertex 2.4 0.569873 20
      vertex 1.55435 1.18428 0
      vertex 2.4 0.569873 0
    endloop
  endfacet
  facet normal -0.406737 -0.913545 0
    outer loop
      vertex 2.4 0.569873 0
      vertex 3.35492 0.144718 20
      vertex 2.4 0.569873 20
    endloop
  endfacet
  facet normal -0.406737 -0.913545 -0
    outer loop
      vertex 3.35492 0.144718 20
      vertex 2.4 0.569873 0
      vertex 3.35492 0.144718 0
    endloop
  endfacet
  facet normal -0.994522 -0.104529 0
    outer loop
      vertex 0.00926247 3.86044 0
      vertex 0 3.94857 20
      vertex 0 3.94857 0
    endloop
  endfacet
  facet normal -0.994522 -0.104529 0
    outer loop
      vertex 0 3.94857 20
      vertex 0.00926247 3.86044 0
      vertex 0.00926247 3.86044 20
    endloop
  endfacet
  facet normal 0.5 -0.866025 0
    outer loop
      vertex 20.1337 0.332273 0
      vertex 21.0389 0.854915 20
      vertex 20.1337 0.332273 20
    endloop
  endfacet
  facet normal 0.5 -0.866025 0
    outer loop
      vertex 21.0389 0.854915 20
      vertex 20.1337 0.332273 0
      vertex 21.0389 0.854915 0
    endloop
  endfacet
  facet normal 0.669131 -0.743145 0
    outer loop
      vertex 21.0389 0.854915 0
      vertex 21.8157 1.55435 20
      vertex 21.0389 0.854915 20
    endloop
  endfacet
  facet normal 0.669131 -0.743145 0
    outer loop
      vertex 21.8157 1.55435 20
      vertex 21.0389 0.854915 0
      vertex 21.8157 1.55435 0
    endloop
  endfacet
  facet normal 0.978148 -0.207912 0
    outer loop
      vertex 22.8553 3.35492 20
      vertex 23 4.03576 0
      vertex 23 4.03576 20
    endloop
  endfacet
  facet normal 0.978148 -0.207912 0
    outer loop
      vertex 23 4.03576 0
      vertex 22.8553 3.35492 20
      vertex 22.8553 3.35492 0
    endloop
  endfacet
  facet normal 0.309017 -0.951056 0
    outer loop
      vertex 19.1396 0.00926247 0
      vertex 20.1337 0.332273 20
      vertex 19.1396 0.00926247 20
    endloop
  endfacet
  facet normal 0.309017 -0.951056 0
    outer loop
      vertex 20.1337 0.332273 20
      vertex 19.1396 0.00926247 0
      vertex 20.1337 0.332273 0
    endloop
  endfacet
  facet normal 0.809017 -0.587785 0
    outer loop
      vertex 21.8157 1.55435 20
      vertex 22.4301 2.4 0
      vertex 22.4301 2.4 20
    endloop
  endfacet
  facet normal 0.809017 -0.587785 0
    outer loop
      vertex 22.4301 2.4 0
      vertex 21.8157 1.55435 20
      vertex 21.8157 1.55435 0
    endloop
  endfacet
  facet normal 0.913545 -0.406737 0
    outer loop
      vertex 22.4301 2.4 20
      vertex 22.8553 3.35492 0
      vertex 22.8553 3.35492 20
    endloop
  endfacet
  facet normal 0.913545 -0.406737 0
    outer loop
      vertex 22.8553 3.35492 0
      vertex 22.4301 2.4 20
      vertex 22.4301 2.4 0
    endloop
  endfacet
  facet normal 0.104528 -0.994522 0
    outer loop
      vertex 19.0514 0 0
      vertex 19.1396 0.00926247 20
      vertex 19.0514 0 20
    endloop
  endfacet
  facet normal 0.104528 -0.994522 0
    outer loop
      vertex 19.1396 0.00926247 20
      vertex 19.0514 0 0
      vertex 19.1396 0.00926247 0
    endloop
  endfacet
  facet normal 0.866025 0.5 0
    outer loop
      vertex 22.6677 20.1337 20
      vertex 22.1451 21.0389 0
      vertex 22.1451 21.0389 20
    endloop
  endfacet
  facet normal 0.866025 0.5 0
    outer loop
      vertex 22.1451 21.0389 0
      vertex 22.6677 20.1337 20
      vertex 22.6677 20.1337 0
    endloop
  endfacet
  facet normal 0.743145 0.669131 0
    outer loop
      vertex 22.1451 21.0389 20
      vertex 21.4457 21.8157 0
      vertex 21.4457 21.8157 20
    endloop
  endfacet
  facet normal 0.743145 0.669131 0
    outer loop
      vertex 21.4457 21.8157 0
      vertex 22.1451 21.0389 20
      vertex 22.1451 21.0389 0
    endloop
  endfacet
  facet normal 0.207912 0.978148 -0
    outer loop
      vertex 19.6451 22.8553 0
      vertex 18.9642 23 20
      vertex 19.6451 22.8553 20
    endloop
  endfacet
  facet normal 0.207912 0.978148 0
    outer loop
      vertex 18.9642 23 20
      vertex 19.6451 22.8553 0
      vertex 18.9642 23 0
    endloop
  endfacet
  facet normal 0.951056 0.309018 0
    outer loop
      vertex 22.9907 19.1396 20
      vertex 22.6677 20.1337 0
      vertex 22.6677 20.1337 20
    endloop
  endfacet
  facet normal 0.951056 0.309018 0
    outer loop
      vertex 22.6677 20.1337 0
      vertex 22.9907 19.1396 20
      vertex 22.9907 19.1396 0
    endloop
  endfacet
  facet normal 0.587786 0.809017 -0
    outer loop
      vertex 21.4457 21.8157 0
      vertex 20.6 22.4301 20
      vertex 21.4457 21.8157 20
    endloop
  endfacet
  facet normal 0.587786 0.809017 0
    outer loop
      vertex 20.6 22.4301 20
      vertex 21.4457 21.8157 0
      vertex 20.6 22.4301 0
    endloop
  endfacet
  facet normal 0.406736 0.913546 -0
    outer loop
      vertex 20.6 22.4301 0
      vertex 19.6451 22.8553 20
      vertex 20.6 22.4301 20
    endloop
  endfacet
  facet normal 0.406736 0.913546 0
    outer loop
      vertex 19.6451 22.8553 20
      vertex 20.6 22.4301 0
      vertex 19.6451 22.8553 0
    endloop
  endfacet
  facet normal 0.994522 0.104523 0
    outer loop
      vertex 23 19.0514 20
      vertex 22.9907 19.1396 0
      vertex 22.9907 19.1396 20
    endloop
  endfacet
  facet normal 0.994522 0.104523 0
    outer loop
      vertex 22.9907 19.1396 0
      vertex 23 19.0514 20
      vertex 23 19.0514 0
    endloop
  endfacet
  facet normal -0.5 0.866025 0
    outer loop
      vertex 2.86632 22.6677 0
      vertex 1.96107 22.1451 20
      vertex 2.86632 22.6677 20
    endloop
  endfacet
  facet normal -0.5 0.866025 0
    outer loop
      vertex 1.96107 22.1451 20
      vertex 2.86632 22.6677 0
      vertex 1.96107 22.1451 0
    endloop
  endfacet
  facet normal -0.669131 0.743145 0
    outer loop
      vertex 1.96107 22.1451 0
      vertex 1.18428 21.4457 20
      vertex 1.96107 22.1451 20
    endloop
  endfacet
  facet normal -0.669131 0.743145 0
    outer loop
      vertex 1.18428 21.4457 20
      vertex 1.96107 22.1451 0
      vertex 1.18428 21.4457 0
    endloop
  endfacet
  facet normal -0.978148 0.207911 0
    outer loop
      vertex 0 18.9642 0
      vertex 0.144718 19.6451 20
      vertex 0.144718 19.6451 0
    endloop
  endfacet
  facet normal -0.978148 0.207911 0
    outer loop
      vertex 0.144718 19.6451 20
      vertex 0 18.9642 0
      vertex 0 18.9642 20
    endloop
  endfacet
  facet normal -0.309018 0.951056 0
    outer loop
      vertex 3.86044 22.9907 0
      vertex 2.86632 22.6677 20
      vertex 3.86044 22.9907 20
    endloop
  endfacet
  facet normal -0.309018 0.951056 0
    outer loop
      vertex 2.86632 22.6677 20
      vertex 3.86044 22.9907 0
      vertex 2.86632 22.6677 0
    endloop
  endfacet
  facet normal -0.809017 0.587786 0
    outer loop
      vertex 0.569873 20.6 0
      vertex 1.18428 21.4457 20
      vertex 1.18428 21.4457 0
    endloop
  endfacet
  facet normal -0.809017 0.587786 0
    outer loop
      vertex 1.18428 21.4457 20
      vertex 0.569873 20.6 0
      vertex 0.569873 20.6 20
    endloop
  endfacet
  facet normal -0.913546 0.406736 0
    outer loop
      vertex 0.144718 19.6451 0
      vertex 0.569873 20.6 20
      vertex 0.569873 20.6 0
    endloop
  endfacet
  facet normal -0.913546 0.406736 0
    outer loop
      vertex 0.569873 20.6 20
      vertex 0.144718 19.6451 0
      vertex 0.144718 19.6451 20
    endloop
  endfacet
  facet normal -0.104525 0.994522 0
    outer loop
      vertex 3.94857 23 0
      vertex 3.86044 22.9907 20
      vertex 3.94857 23 20
    endloop
  endfacet
  facet normal -0.104525 0.994522 0
    outer loop
      vertex 3.86044 22.9907 20
      vertex 3.94857 23 0
      vertex 3.86044 22.9907 0
    endloop
  endfacet
  facet normal -1 0 0
    outer loop
      vertex 0 3.94857 0
      vertex 0 18.9642 20
      vertex 0 18.9642 0
    endloop
  endfacet
  facet normal -1 -0 0
    outer loop
      vertex 0 18.9642 20
      vertex 0 3.94857 0
      vertex 0 3.94857 20
    endloop
  endfacet
  facet normal 1 -0 0
    outer loop
      vertex 23 4.03576 20
      vertex 23 19.0514 0
      vertex 23 19.0514 20
    endloop
  endfacet
  facet normal 1 0 0
    outer loop
      vertex 23 19.0514 0
      vertex 23 4.03576 20
      vertex 23 4.03576 0
    endloop
  endfacet
  facet normal 0 1 -0
    outer loop
      vertex 18.9642 23 0
      vertex 3.94857 23 20
      vertex 18.9642 23 20
    endloop
  endfacet
  facet normal 0 1 0
    outer loop
      vertex 3.94857 23 20
      vertex 18.9642 23 0
      vertex 3.94857 23 0
    endloop
  endfacet
  facet normal 0 -1 0
    outer loop
      vertex 4.03576 0 0
      vertex 19.0514 0 20
      vertex 4.03576 0 20
    endloop
  endfacet
  facet normal 0 -1 -0
    outer loop
      vertex 19.0514 0 20
      vertex 4.03576 0 0
      vertex 19.0514 0 0
    endloop
  endfacet
  facet normal 0 0 1
    outer loop
      vertex 21.6677 19.1337 3
      vertex 22 18.0514 3
      vertex 21.9907 18.1396 3
    endloop
  endfacet
  facet normal 0 0 1
    outer loop
      vertex 22 18.0514 3
      vertex 17.9642 22 3
      vertex 22 5.03576 3
    endloop
  endfacet
  facet normal 0 0 1
    outer loop
      vertex 22 18.0514 3
      vertex 21.6677 19.1337 3
      vertex 17.9642 22 3
    endloop
  endfacet
  facet normal 0 0 1
    outer loop
      vertex 5.03576 1 3
      vertex 22 5.03576 3
      vertex 17.9642 22 3
    endloop
  endfacet
  facet normal 0 0 1
    outer loop
      vertex 17.9642 22 3
      vertex 21.6677 19.1337 3
      vertex 21.1451 20.0389 3
    endloop
  endfacet
  facet normal 0 -0 1
    outer loop
      vertex 21.4301 3.4 3
      vertex 22 5.03576 3
      vertex 18.0514 1 3
    endloop
  endfacet
  facet normal 0 0 1
    outer loop
      vertex 17.9642 22 3
      vertex 21.1451 20.0389 3
      vertex 20.4457 20.8157 3
    endloop
  endfacet
  facet normal 0 0 1
    outer loop
      vertex 22 5.03576 3
      vertex 21.4301 3.4 3
      vertex 21.8553 4.35492 3
    endloop
  endfacet
  facet normal 0 0 1
    outer loop
      vertex 17.9642 22 3
      vertex 20.4457 20.8157 3
      vertex 19.6 21.4301 3
    endloop
  endfacet
  facet normal 0 0 1
    outer loop
      vertex 21.4301 3.4 3
      vertex 18.0514 1 3
      vertex 20.8157 2.55435 3
    endloop
  endfacet
  facet normal 0 0 1
    outer loop
      vertex 17.9642 22 3
      vertex 19.6 21.4301 3
      vertex 18.6451 21.8553 3
    endloop
  endfacet
  facet normal 0 0 1
    outer loop
      vertex 20.8157 2.55435 3
      vertex 18.0514 1 3
      vertex 20.0389 1.85492 3
    endloop
  endfacet
  facet normal 0 0 1
    outer loop
      vertex 19.1337 1.33227 3
      vertex 18.0514 1 3
      vertex 18.1396 1.00926 3
    endloop
  endfacet
  facet normal 0 0 1
    outer loop
      vertex 20.0389 1.85492 3
      vertex 18.0514 1 3
      vertex 19.1337 1.33227 3
    endloop
  endfacet
  facet normal 0 0 1
    outer loop
      vertex 22 5.03576 3
      vertex 5.03576 1 3
      vertex 18.0514 1 3
    endloop
  endfacet
  facet normal 0 0 1
    outer loop
      vertex 1 17.9642 3
      vertex 17.9642 22 3
      vertex 4.94857 22 3
    endloop
  endfacet
  facet normal 0 0 1
    outer loop
      vertex 3.86632 21.6677 3
      vertex 4.94857 22 3
      vertex 4.86044 21.9907 3
    endloop
  endfacet
  facet normal 0 0 1
    outer loop
      vertex 17.9642 22 3
      vertex 1 17.9642 3
      vertex 5.03576 1 3
    endloop
  endfacet
  facet normal 0 0 1
    outer loop
      vertex 4.94857 22 3
      vertex 3.86632 21.6677 3
      vertex 1 17.9642 3
    endloop
  endfacet
  facet normal 0 0 1
    outer loop
      vertex 5.03576 1 3
      vertex 1 17.9642 3
      vertex 1 4.94857 3
    endloop
  endfacet
  facet normal 0 0 1
    outer loop
      vertex 1 17.9642 3
      vertex 3.86632 21.6677 3
      vertex 2.96107 21.1451 3
    endloop
  endfacet
  facet normal -0 -0 1
    outer loop
      vertex 3.4 1.56987 3
      vertex 5.03576 1 3
      vertex 1 4.94857 3
    endloop
  endfacet
  facet normal 0 0 1
    outer loop
      vertex 1 17.9642 3
      vertex 2.96107 21.1451 3
      vertex 2.18428 20.4457 3
    endloop
  endfacet
  facet normal 0 0 1
    outer loop
      vertex 5.03576 1 3
      vertex 3.4 1.56987 3
      vertex 4.35492 1.14472 3
    endloop
  endfacet
  facet normal 0 0 1
    outer loop
      vertex 1 17.9642 3
      vertex 2.18428 20.4457 3
      vertex 1.56987 19.6 3
    endloop
  endfacet
  facet normal 0 0 1
    outer loop
      vertex 3.4 1.56987 3
      vertex 1 4.94857 3
      vertex 2.55435 2.18428 3
    endloop
  endfacet
  facet normal 0 0 1
    outer loop
      vertex 1 17.9642 3
      vertex 1.56987 19.6 3
      vertex 1.14472 18.6451 3
    endloop
  endfacet
  facet normal 0 0 1
    outer loop
      vertex 2.55435 2.18428 3
      vertex 1 4.94857 3
      vertex 1.85492 2.96107 3
    endloop
  endfacet
  facet normal 0 0 1
    outer loop
      vertex 1.85492 2.96107 3
      vertex 1 4.94857 3
      vertex 1.33227 3.86632 3
    endloop
  endfacet
  facet normal 0 0 1
    outer loop
      vertex 1.33227 3.86632 3
      vertex 1 4.94857 3
      vertex 1.00926 4.86044 3
    endloop
  endfacet
  facet normal 0.866025 0.5 0
    outer loop
      vertex 1.85492 2.96107 20
      vertex 1.33227 3.86632 3
      vertex 1.33227 3.86632 20
    endloop
  endfacet
  facet normal 0.866025 0.5 0
    outer loop
      vertex 1.33227 3.86632 3
      vertex 1.85492 2.96107 20
      vertex 1.85492 2.96107 3
    endloop
  endfacet
  facet normal 0.743145 0.669131 0
    outer loop
      vertex 2.55435 2.18428 20
      vertex 1.85492 2.96107 3
      vertex 1.85492 2.96107 20
    endloop
  endfacet
  facet normal 0.743145 0.669131 0
    outer loop
      vertex 1.85492 2.96107 3
      vertex 2.55435 2.18428 20
      vertex 2.55435 2.18428 3
    endloop
  endfacet
  facet normal 0.207911 0.978148 -0
    outer loop
      vertex 5.03576 1 3
      vertex 4.35492 1.14472 20
      vertex 5.03576 1 20
    endloop
  endfacet
  facet normal 0.207911 0.978148 0
    outer loop
      vertex 4.35492 1.14472 20
      vertex 5.03576 1 3
      vertex 4.35492 1.14472 3
    endloop
  endfacet
  facet normal 0.951057 0.309017 0
    outer loop
      vertex 1.33227 3.86632 20
      vertex 1.00926 4.86044 3
      vertex 1.00926 4.86044 20
    endloop
  endfacet
  facet normal 0.951057 0.309017 0
    outer loop
      vertex 1.00926 4.86044 3
      vertex 1.33227 3.86632 20
      vertex 1.33227 3.86632 3
    endloop
  endfacet
  facet normal 0.587785 0.809017 -0
    outer loop
      vertex 3.4 1.56987 3
      vertex 2.55435 2.18428 20
      vertex 3.4 1.56987 20
    endloop
  endfacet
  facet normal 0.587785 0.809017 0
    outer loop
      vertex 2.55435 2.18428 20
      vertex 3.4 1.56987 3
      vertex 2.55435 2.18428 3
    endloop
  endfacet
  facet normal 0.406737 0.913545 -0
    outer loop
      vertex 4.35492 1.14472 3
      vertex 3.4 1.56987 20
      vertex 4.35492 1.14472 20
    endloop
  endfacet
  facet normal 0.406737 0.913545 0
    outer loop
      vertex 3.4 1.56987 20
      vertex 4.35492 1.14472 3
      vertex 3.4 1.56987 3
    endloop
  endfacet
  facet normal 0.994522 0.104529 0
    outer loop
      vertex 1.00926 4.86044 20
      vertex 1 4.94857 3
      vertex 1 4.94857 20
    endloop
  endfacet
  facet normal 0.994522 0.104529 0
    outer loop
      vertex 1 4.94857 3
      vertex 1.00926 4.86044 20
      vertex 1.00926 4.86044 3
    endloop
  endfacet
  facet normal -0.5 0.866025 0
    outer loop
      vertex 20.0389 1.85492 3
      vertex 19.1337 1.33227 20
      vertex 20.0389 1.85492 20
    endloop
  endfacet
  facet normal -0.5 0.866025 0
    outer loop
      vertex 19.1337 1.33227 20
      vertex 20.0389 1.85492 3
      vertex 19.1337 1.33227 3
    endloop
  endfacet
  facet normal -0.669131 0.743145 0
    outer loop
      vertex 20.8157 2.55435 3
      vertex 20.0389 1.85492 20
      vertex 20.8157 2.55435 20
    endloop
  endfacet
  facet normal -0.669131 0.743145 0
    outer loop
      vertex 20.0389 1.85492 20
      vertex 20.8157 2.55435 3
      vertex 20.0389 1.85492 3
    endloop
  endfacet
  facet normal -0.978148 0.207912 0
    outer loop
      vertex 21.8553 4.35492 3
      vertex 22 5.03576 20
      vertex 22 5.03576 3
    endloop
  endfacet
  facet normal -0.978148 0.207912 0
    outer loop
      vertex 22 5.03576 20
      vertex 21.8553 4.35492 3
      vertex 21.8553 4.35492 20
    endloop
  endfacet
  facet normal -0.309017 0.951056 0
    outer loop
      vertex 19.1337 1.33227 3
      vertex 18.1396 1.00926 20
      vertex 19.1337 1.33227 20
    endloop
  endfacet
  facet normal -0.309017 0.951056 0
    outer loop
      vertex 18.1396 1.00926 20
      vertex 19.1337 1.33227 3
      vertex 18.1396 1.00926 3
    endloop
  endfacet
  facet normal -0.809017 0.587785 0
    outer loop
      vertex 20.8157 2.55435 3
      vertex 21.4301 3.4 20
      vertex 21.4301 3.4 3
    endloop
  endfacet
  facet normal -0.809017 0.587785 0
    outer loop
      vertex 21.4301 3.4 20
      vertex 20.8157 2.55435 3
      vertex 20.8157 2.55435 20
    endloop
  endfacet
  facet normal -0.913545 0.406737 0
    outer loop
      vertex 21.4301 3.4 3
      vertex 21.8553 4.35492 20
      vertex 21.8553 4.35492 3
    endloop
  endfacet
  facet normal -0.913545 0.406737 0
    outer loop
      vertex 21.8553 4.35492 20
      vertex 21.4301 3.4 3
      vertex 21.4301 3.4 20
    endloop
  endfacet
  facet normal -0.104527 0.994522 0
    outer loop
      vertex 18.1396 1.00926 3
      vertex 18.0514 1 20
      vertex 18.1396 1.00926 20
    endloop
  endfacet
  facet normal -0.104527 0.994522 0
    outer loop
      vertex 18.0514 1 20
      vertex 18.1396 1.00926 3
      vertex 18.0514 1 3
    endloop
  endfacet
  facet normal -0.866025 -0.5 0
    outer loop
      vertex 21.6677 19.1337 3
      vertex 21.1451 20.0389 20
      vertex 21.1451 20.0389 3
    endloop
  endfacet
  facet normal -0.866025 -0.5 0
    outer loop
      vertex 21.1451 20.0389 20
      vertex 21.6677 19.1337 3
      vertex 21.6677 19.1337 20
    endloop
  endfacet
  facet normal -0.743145 -0.669131 0
    outer loop
      vertex 21.1451 20.0389 3
      vertex 20.4457 20.8157 20
      vertex 20.4457 20.8157 3
    endloop
  endfacet
  facet normal -0.743145 -0.669131 0
    outer loop
      vertex 20.4457 20.8157 20
      vertex 21.1451 20.0389 3
      vertex 21.1451 20.0389 20
    endloop
  endfacet
  facet normal -0.207912 -0.978148 0
    outer loop
      vertex 17.9642 22 3
      vertex 18.6451 21.8553 20
      vertex 17.9642 22 20
    endloop
  endfacet
  facet normal -0.207912 -0.978148 -0
    outer loop
      vertex 18.6451 21.8553 20
      vertex 17.9642 22 3
      vertex 18.6451 21.8553 3
    endloop
  endfacet
  facet normal -0.951056 -0.309018 0
    outer loop
      vertex 21.9907 18.1396 3
      vertex 21.6677 19.1337 20
      vertex 21.6677 19.1337 3
    endloop
  endfacet
  facet normal -0.951056 -0.309018 0
    outer loop
      vertex 21.6677 19.1337 20
      vertex 21.9907 18.1396 3
      vertex 21.9907 18.1396 20
    endloop
  endfacet
  facet normal -0.587786 -0.809017 0
    outer loop
      vertex 19.6 21.4301 3
      vertex 20.4457 20.8157 20
      vertex 19.6 21.4301 20
    endloop
  endfacet
  facet normal -0.587786 -0.809017 -0
    outer loop
      vertex 20.4457 20.8157 20
      vertex 19.6 21.4301 3
      vertex 20.4457 20.8157 3
    endloop
  endfacet
  facet normal -0.406736 -0.913546 0
    outer loop
      vertex 18.6451 21.8553 3
      vertex 19.6 21.4301 20
      vertex 18.6451 21.8553 20
    endloop
  endfacet
  facet normal -0.406736 -0.913546 -0
    outer loop
      vertex 19.6 21.4301 20
      vertex 18.6451 21.8553 3
      vertex 19.6 21.4301 3
    endloop
  endfacet
  facet normal -0.994522 -0.104523 0
    outer loop
      vertex 22 18.0514 3
      vertex 21.9907 18.1396 20
      vertex 21.9907 18.1396 3
    endloop
  endfacet
  facet normal -0.994522 -0.104523 0
    outer loop
      vertex 21.9907 18.1396 20
      vertex 22 18.0514 3
      vertex 22 18.0514 20
    endloop
  endfacet
  facet normal 0.5 -0.866025 0
    outer loop
      vertex 2.96107 21.1451 3
      vertex 3.86632 21.6677 20
      vertex 2.96107 21.1451 20
    endloop
  endfacet
  facet normal 0.5 -0.866025 0
    outer loop
      vertex 3.86632 21.6677 20
      vertex 2.96107 21.1451 3
      vertex 3.86632 21.6677 3
    endloop
  endfacet
  facet normal 0.669131 -0.743145 0
    outer loop
      vertex 2.18428 20.4457 3
      vertex 2.96107 21.1451 20
      vertex 2.18428 20.4457 20
    endloop
  endfacet
  facet normal 0.669131 -0.743145 0
    outer loop
      vertex 2.96107 21.1451 20
      vertex 2.18428 20.4457 3
      vertex 2.96107 21.1451 3
    endloop
  endfacet
  facet normal 0.978148 -0.207911 0
    outer loop
      vertex 1 17.9642 20
      vertex 1.14472 18.6451 3
      vertex 1.14472 18.6451 20
    endloop
  endfacet
  facet normal 0.978148 -0.207911 0
    outer loop
      vertex 1.14472 18.6451 3
      vertex 1 17.9642 20
      vertex 1 17.9642 3
    endloop
  endfacet
  facet normal 0.309018 -0.951056 0
    outer loop
      vertex 3.86632 21.6677 3
      vertex 4.86044 21.9907 20
      vertex 3.86632 21.6677 20
    endloop
  endfacet
  facet normal 0.309018 -0.951056 0
    outer loop
      vertex 4.86044 21.9907 20
      vertex 3.86632 21.6677 3
      vertex 4.86044 21.9907 3
    endloop
  endfacet
  facet normal 0.809017 -0.587786 0
    outer loop
      vertex 1.56987 19.6 20
      vertex 2.18428 20.4457 3
      vertex 2.18428 20.4457 20
    endloop
  endfacet
  facet normal 0.809017 -0.587786 0
    outer loop
      vertex 2.18428 20.4457 3
      vertex 1.56987 19.6 20
      vertex 1.56987 19.6 3
    endloop
  endfacet
  facet normal 0.913546 -0.406736 0
    outer loop
      vertex 1.14472 18.6451 20
      vertex 1.56987 19.6 3
      vertex 1.56987 19.6 20
    endloop
  endfacet
  facet normal 0.913546 -0.406736 0
    outer loop
      vertex 1.56987 19.6 3
      vertex 1.14472 18.6451 20
      vertex 1.14472 18.6451 3
    endloop
  endfacet
  facet normal 0.104525 -0.994522 0
    outer loop
      vertex 4.86044 21.9907 3
      vertex 4.94857 22 20
      vertex 4.86044 21.9907 20
    endloop
  endfacet
  facet normal 0.104525 -0.994522 0
    outer loop
      vertex 4.94857 22 20
      vertex 4.86044 21.9907 3
      vertex 4.94857 22 3
    endloop
  endfacet
  facet normal 1 -0 0
    outer loop
      vertex 1 4.94857 20
      vertex 1 17.9642 3
      vertex 1 17.9642 20
    endloop
  endfacet
  facet normal 1 0 0
    outer loop
      vertex 1 17.9642 3
      vertex 1 4.94857 20
      vertex 1 4.94857 3
    endloop
  endfacet
  facet normal -1 0 0
    outer loop
      vertex 22 5.03576 3
      vertex 22 18.0514 20
      vertex 22 18.0514 3
    endloop
  endfacet
  facet normal -1 -0 0
    outer loop
      vertex 22 18.0514 20
      vertex 22 5.03576 3
      vertex 22 5.03576 20
    endloop
  endfacet
  facet normal 0 -1 0
    outer loop
      vertex 4.94857 22 3
      vertex 17.9642 22 20
      vertex 4.94857 22 20
    endloop
  endfacet
  facet normal 0 -1 -0
    outer loop
      vertex 17.9642 22 20
      vertex 4.94857 22 3
      vertex 17.9642 22 3
    endloop
  endfacet
  facet normal 0 1 -0
    outer loop
      vertex 18.0514 1 3
      vertex 5.03576 1 20
      vertex 18.0514 1 20
    endloop
  endfacet
  facet normal 0 1 0
    outer loop
      vertex 5.03576 1 20
      vertex 18.0514 1 3
      vertex 5.03576 1 3
    endloop
  endfacet
endsolid OpenSCAD_Model
