solid OpenSCAD_Model
  facet normal 0 0 -1
    outer loop
      vertex -5 0 0
      vertex -4.96057 0.626666 0
      vertex -4.96057 -0.626666 0
    endloop
  endfacet
  facet normal 0 0 -1
    outer loop
      vertex -4.96057 -0.626666 0
      vertex -4.96057 0.626666 0
      vertex -4.84292 1.24345 0
    endloop
  endfacet
  facet normal 0 0 -1
    outer loop
      vertex -4.96057 -0.626666 0
      vertex -4.84292 1.24345 0
      vertex -4.64888 1.84062 0
    endloop
  endfacet
  facet normal 0 0 -1
    outer loop
      vertex -4.96057 -0.626666 0
      vertex -4.64888 1.84062 0
      vertex -4.38153 2.40877 0
    endloop
  endfacet
  facet normal 0 0 -1
    outer loop
      vertex -4.96057 -0.626666 0
      vertex -4.38153 2.40877 0
      vertex -4.04508 2.93893 0
    endloop
  endfacet
  facet normal 0 0 -1
    outer loop
      vertex -4.96057 -0.626666 0
      vertex -4.04508 2.93893 0
      vertex -3.64484 3.42274 0
    endloop
  endfacet
  facet normal 0 0 -1
    outer loop
      vertex -4.96057 -0.626666 0
      vertex -3.64484 3.42274 0
      vertex -3.18712 3.85257 0
    endloop
  endfacet
  facet normal 0 0 -1
    outer loop
      vertex -4.96057 -0.626666 0
      vertex -3.18712 3.85257 0
      vertex -2.67913 4.22164 0
    endloop
  endfacet
  facet normal 0 0 -1
    outer loop
      vertex -4.96057 -0.626666 0
      vertex -2.67913 4.22164 0
      vertex -2.1289 4.52413 0
    endloop
  endfacet
  facet normal 0 0 -1
    outer loop
      vertex -4.96057 -0.626666 0
      vertex -2.1289 4.52413 0
      vertex -1.54508 4.75528 0
    endloop
  endfacet
  facet normal 0 0 -1
    outer loop
      vertex -4.96057 -0.626666 0
      vertex -1.54508 4.75528 0
      vertex -0.936907 4.91144 0
    endloop
  endfacet
  facet normal 0 0 -1
    outer loop
      vertex -1.92898 3.03958 0
      vertex -0.936907 4.91144 0
      vertex -0.313953 4.99013 0
    endloop
  endfacet
  facet normal 0 0 -1
    outer loop
      vertex -1.5328 3.25738 0
      vertex -0.313953 4.99013 0
      vertex 0.313953 4.99013 0
    endloop
  endfacet
  facet normal 0 0 -1
    outer loop
      vertex -0.674573 3.53623 0
      vertex 0.313953 4.99013 0
      vertex 0.936907 4.91144 0
    endloop
  endfacet
  facet normal 0 0 -1
    outer loop
      vertex -0.226046 3.5929 0
      vertex 0.936907 4.91144 0
      vertex 1.54508 4.75528 0
    endloop
  endfacet
  facet normal 0 0 -1
    outer loop
      vertex 0.674573 3.53623 0
      vertex 1.54508 4.75528 0
      vertex 2.1289 4.52413 0
    endloop
  endfacet
  facet normal 0 0 -1
    outer loop
      vertex 1.11246 3.4238 0
      vertex 2.1289 4.52413 0
      vertex 2.67913 4.22164 0
    endloop
  endfacet
  facet normal 0 0 -1
    outer loop
      vertex 1.5328 3.25738 0
      vertex 2.67913 4.22164 0
      vertex 3.18712 3.85257 0
    endloop
  endfacet
  facet normal 0 0 -1
    outer loop
      vertex 1.92898 3.03958 0
      vertex 3.18712 3.85257 0
      vertex 3.64484 3.42274 0
    endloop
  endfacet
  facet normal 0 0 -1
    outer loop
      vertex 2.62429 2.46437 0
      vertex 3.64484 3.42274 0
      vertex 4.04508 2.93893 0
    endloop
  endfacet
  facet normal 0 0 -1
    outer loop
      vertex 2.91246 2.11603 0
      vertex 4.04508 2.93893 0
      vertex 4.38153 2.40877 0
    endloop
  endfacet
  facet normal 0 0 -1
    outer loop
      vertex 3.1547 1.73431 0
      vertex 4.38153 2.40877 0
      vertex 4.64888 1.84062 0
    endloop
  endfacet
  facet normal 0 0 -1
    outer loop
      vertex 3.34719 1.32525 0
      vertex 4.64888 1.84062 0
      vertex 4.84292 1.24345 0
    endloop
  endfacet
  facet normal 0 0 -1
    outer loop
      vertex 3.57161 0.4512 0
      vertex 4.84292 1.24345 0
      vertex 4.96057 0.626666 0
    endloop
  endfacet
  facet normal 0 0 -1
    outer loop
      vertex 3.6 0 0
      vertex 4.96057 0.626666 0
      vertex 5 0 0
    endloop
  endfacet
  facet normal 0 0 -1
    outer loop
      vertex 3.57161 -0.4512 0
      vertex 5 0 0
      vertex 4.96057 -0.626666 0
    endloop
  endfacet
  facet normal 0 0 -1
    outer loop
      vertex 3.4869 -0.895284 0
      vertex 4.96057 -0.626666 0
      vertex 4.84292 -1.24345 0
    endloop
  endfacet
  facet normal 0 0 -1
    outer loop
      vertex 3.34719 -1.32525 0
      vertex 4.84292 -1.24345 0
      vertex 4.64888 -1.84062 0
    endloop
  endfacet
  facet normal 0 0 -1
    outer loop
      vertex 2.91246 -2.11603 0
      vertex 4.64888 -1.84062 0
      vertex 4.38153 -2.40877 0
    endloop
  endfacet
  facet normal 0 0 -1
    outer loop
      vertex 2.62429 -2.46437 0
      vertex 4.38153 -2.40877 0
      vertex 4.04508 -2.93893 0
    endloop
  endfacet
  facet normal 0 0 -1
    outer loop
      vertex 2.29473 -2.77385 0
      vertex 4.04508 -2.93893 0
      vertex 3.64484 -3.42274 0
    endloop
  endfacet
  facet normal 0 0 -1
    outer loop
      vertex 1.92898 -3.03958 0
      vertex 3.64484 -3.42274 0
      vertex 3.18712 -3.85257 0
    endloop
  endfacet
  facet normal 0 0 -1
    outer loop
      vertex 1.11246 -3.4238 0
      vertex 3.18712 -3.85257 0
      vertex 2.67913 -4.22164 0
    endloop
  endfacet
  facet normal 0 0 -1
    outer loop
      vertex 0.674573 -3.53623 0
      vertex 2.67913 -4.22164 0
      vertex 2.1289 -4.52413 0
    endloop
  endfacet
  facet normal 0 0 -1
    outer loop
      vertex -0.226046 -3.5929 0
      vertex 2.1289 -4.52413 0
      vertex 1.54508 -4.75528 0
    endloop
  endfacet
  facet normal 0 0 -1
    outer loop
      vertex -0.674573 -3.53623 0
      vertex 1.54508 -4.75528 0
      vertex 0.936907 -4.91144 0
    endloop
  endfacet
  facet normal 0 0 -1
    outer loop
      vertex -1.5328 -3.25738 0
      vertex 0.936907 -4.91144 0
      vertex 0.313953 -4.99013 0
    endloop
  endfacet
  facet normal 0 0 -1
    outer loop
      vertex -4.96057 -0.626666 0
      vertex 0.313953 -4.99013 0
      vertex -0.313953 -4.99013 0
    endloop
  endfacet
  facet normal 0 0 -1
    outer loop
      vertex -4.96057 -0.626666 0
      vertex -0.313953 -4.99013 0
      vertex -0.936907 -4.91144 0
    endloop
  endfacet
  facet normal 0 0 -1
    outer loop
      vertex -4.96057 -0.626666 0
      vertex -0.936907 -4.91144 0
      vertex -1.54508 -4.75528 0
    endloop
  endfacet
  facet normal 0 0 -1
    outer loop
      vertex -4.96057 -0.626666 0
      vertex -1.54508 -4.75528 0
      vertex -2.1289 -4.52413 0
    endloop
  endfacet
  facet normal 0 0 -1
    outer loop
      vertex -4.96057 -0.626666 0
      vertex -2.1289 -4.52413 0
      vertex -2.67913 -4.22164 0
    endloop
  endfacet
  facet normal 0 0 -1
    outer loop
      vertex -4.96057 -0.626666 0
      vertex -2.67913 -4.22164 0
      vertex -3.18712 -3.85257 0
    endloop
  endfacet
  facet normal 0 0 -1
    outer loop
      vertex -4.96057 -0.626666 0
      vertex -3.18712 -3.85257 0
      vertex -3.64484 -3.42274 0
    endloop
  endfacet
  facet normal 0 0 -1
    outer loop
      vertex -4.96057 -0.626666 0
      vertex -3.64484 -3.42274 0
      vertex -4.04508 -2.93893 0
    endloop
  endfacet
  facet normal 0 0 -1
    outer loop
      vertex -4.96057 -0.626666 0
      vertex -4.04508 -2.93893 0
      vertex -4.38153 -2.40877 0
    endloop
  endfacet
  facet normal 0 0 -1
    outer loop
      vertex -4.96057 -0.626666 0
      vertex -4.38153 -2.40877 0
      vertex -4.64888 -1.84062 0
    endloop
  endfacet
  facet normal 0 0 -1
    outer loop
      vertex -4.96057 -0.626666 0
      vertex -4.64888 -1.84062 0
      vertex -4.84292 -1.24345 0
    endloop
  endfacet
  facet normal 0 0 -1
    outer loop
      vertex -3.57161 -0.4512 0
      vertex -4.96057 -0.626666 0
      vertex -3.6 0 0
    endloop
  endfacet
  facet normal 0 0 -1
    outer loop
      vertex -3.4869 -0.895284 0
      vertex -4.96057 -0.626666 0
      vertex -3.57161 -0.4512 0
    endloop
  endfacet
  facet normal 0 0 -1
    outer loop
      vertex -3.34719 -1.32525 0
      vertex -4.96057 -0.626666 0
      vertex -3.4869 -0.895284 0
    endloop
  endfacet
  facet normal 0 0 -1
    outer loop
      vertex -3.1547 -1.73431 0
      vertex -4.96057 -0.626666 0
      vertex -3.34719 -1.32525 0
    endloop
  endfacet
  facet normal 0 0 -1
    outer loop
      vertex -2.91246 -2.11603 0
      vertex -4.96057 -0.626666 0
      vertex -3.1547 -1.73431 0
    endloop
  endfacet
  facet normal 0 0 -1
    outer loop
      vertex -1.92898 -3.03958 0
      vertex 0.313953 -4.99013 0
      vertex -2.29473 -2.77385 0
    endloop
  endfacet
  facet normal 0 0 -1
    outer loop
      vertex -4.96057 -0.626666 0
      vertex -2.91246 -2.11603 0
      vertex -2.62429 -2.46437 0
    endloop
  endfacet
  facet normal 0 0 -1
    outer loop
      vertex -4.96057 -0.626666 0
      vertex -2.62429 -2.46437 0
      vertex -2.29473 -2.77385 0
    endloop
  endfacet
  facet normal 0 0 -1
    outer loop
      vertex -4.96057 -0.626666 0
      vertex -2.29473 -2.77385 0
      vertex 0.313953 -4.99013 0
    endloop
  endfacet
  facet normal 0 0 -1
    outer loop
      vertex -1.5328 -3.25738 0
      vertex 0.313953 -4.99013 0
      vertex -1.92898 -3.03958 0
    endloop
  endfacet
  facet normal 0 0 -1
    outer loop
      vertex -1.11246 -3.4238 0
      vertex 0.936907 -4.91144 0
      vertex -1.5328 -3.25738 0
    endloop
  endfacet
  facet normal 0 0 -1
    outer loop
      vertex -0.674573 -3.53623 0
      vertex 0.936907 -4.91144 0
      vertex -1.11246 -3.4238 0
    endloop
  endfacet
  facet normal 0 0 -1
    outer loop
      vertex 0.226046 -3.5929 0
      vertex 2.1289 -4.52413 0
      vertex -0.226046 -3.5929 0
    endloop
  endfacet
  facet normal 0 0 -1
    outer loop
      vertex 0.674573 -3.53623 0
      vertex 2.1289 -4.52413 0
      vertex 0.226046 -3.5929 0
    endloop
  endfacet
  facet normal 0 0 -1
    outer loop
      vertex -0.226046 -3.5929 0
      vertex 1.54508 -4.75528 0
      vertex -0.674573 -3.53623 0
    endloop
  endfacet
  facet normal 0 0 -1
    outer loop
      vertex 1.5328 -3.25738 0
      vertex 3.18712 -3.85257 0
      vertex 1.11246 -3.4238 0
    endloop
  endfacet
  facet normal 0 0 -1
    outer loop
      vertex 1.92898 -3.03958 0
      vertex 3.18712 -3.85257 0
      vertex 1.5328 -3.25738 0
    endloop
  endfacet
  facet normal 0 0 -1
    outer loop
      vertex 1.11246 -3.4238 0
      vertex 2.67913 -4.22164 0
      vertex 0.674573 -3.53623 0
    endloop
  endfacet
  facet normal 0 0 -1
    outer loop
      vertex 3.1547 -1.73431 0
      vertex 4.64888 -1.84062 0
      vertex 2.91246 -2.11603 0
    endloop
  endfacet
  facet normal 0 0 -1
    outer loop
      vertex 3.34719 -1.32525 0
      vertex 4.64888 -1.84062 0
      vertex 3.1547 -1.73431 0
    endloop
  endfacet
  facet normal 0 0 -1
    outer loop
      vertex 2.91246 -2.11603 0
      vertex 4.38153 -2.40877 0
      vertex 2.62429 -2.46437 0
    endloop
  endfacet
  facet normal 0 0 -1
    outer loop
      vertex 2.62429 -2.46437 0
      vertex 4.04508 -2.93893 0
      vertex 2.29473 -2.77385 0
    endloop
  endfacet
  facet normal 0 0 -1
    outer loop
      vertex 2.29473 -2.77385 0
      vertex 3.64484 -3.42274 0
      vertex 1.92898 -3.03958 0
    endloop
  endfacet
  facet normal 0 0 -1
    outer loop
      vertex 3.57161 0.4512 0
      vertex 4.96057 0.626666 0
      vertex 3.6 0 0
    endloop
  endfacet
  facet normal 0 0 -1
    outer loop
      vertex 3.4869 0.895284 0
      vertex 4.84292 1.24345 0
      vertex 3.57161 0.4512 0
    endloop
  endfacet
  facet normal 0 0 -1
    outer loop
      vertex 3.6 0 0
      vertex 5 0 0
      vertex 3.57161 -0.4512 0
    endloop
  endfacet
  facet normal 0 0 -1
    outer loop
      vertex 3.57161 -0.4512 0
      vertex 4.96057 -0.626666 0
      vertex 3.4869 -0.895284 0
    endloop
  endfacet
  facet normal 0 0 -1
    outer loop
      vertex 3.4869 -0.895284 0
      vertex 4.84292 -1.24345 0
      vertex 3.34719 -1.32525 0
    endloop
  endfacet
  facet normal 0 0 -1
    outer loop
      vertex 2.29473 2.77385 0
      vertex 3.64484 3.42274 0
      vertex 2.62429 2.46437 0
    endloop
  endfacet
  facet normal 0 0 -1
    outer loop
      vertex 1.92898 3.03958 0
      vertex 3.64484 3.42274 0
      vertex 2.29473 2.77385 0
    endloop
  endfacet
  facet normal 0 0 -1
    outer loop
      vertex 2.62429 2.46437 0
      vertex 4.04508 2.93893 0
      vertex 2.91246 2.11603 0
    endloop
  endfacet
  facet normal 0 0 -1
    outer loop
      vertex 2.91246 2.11603 0
      vertex 4.38153 2.40877 0
      vertex 3.1547 1.73431 0
    endloop
  endfacet
  facet normal 0 0 -1
    outer loop
      vertex 3.1547 1.73431 0
      vertex 4.64888 1.84062 0
      vertex 3.34719 1.32525 0
    endloop
  endfacet
  facet normal 0 0 -1
    outer loop
      vertex 0.226046 3.5929 0
      vertex 1.54508 4.75528 0
      vertex 0.674573 3.53623 0
    endloop
  endfacet
  facet normal 0 0 -1
    outer loop
      vertex -0.674573 3.53623 0
      vertex 0.936907 4.91144 0
      vertex -0.226046 3.5929 0
    endloop
  endfacet
  facet normal 0 0 -1
    outer loop
      vertex -1.11246 3.4238 0
      vertex 0.313953 4.99013 0
      vertex -0.674573 3.53623 0
    endloop
  endfacet
  facet normal 0 0 -1
    outer loop
      vertex -1.5328 3.25738 0
      vertex 0.313953 4.99013 0
      vertex -1.11246 3.4238 0
    endloop
  endfacet
  facet normal 0 0 -1
    outer loop
      vertex -1.92898 3.03958 0
      vertex -0.313953 4.99013 0
      vertex -1.5328 3.25738 0
    endloop
  endfacet
  facet normal 0 0 -1
    outer loop
      vertex -2.29473 2.77385 0
      vertex -0.936907 4.91144 0
      vertex -1.92898 3.03958 0
    endloop
  endfacet
  facet normal 0 0 -1
    outer loop
      vertex -3.1547 1.73431 0
      vertex -4.96057 -0.626666 0
      vertex -2.91246 2.11603 0
    endloop
  endfacet
  facet normal 0 0 -1
    outer loop
      vertex -2.62429 2.46437 0
      vertex -0.936907 4.91144 0
      vertex -2.29473 2.77385 0
    endloop
  endfacet
  facet normal 0 0 -1
    outer loop
      vertex -2.91246 2.11603 0
      vertex -0.936907 4.91144 0
      vertex -2.62429 2.46437 0
    endloop
  endfacet
  facet normal 0 0 -1
    outer loop
      vertex -4.96057 -0.626666 0
      vertex -0.936907 4.91144 0
      vertex -2.91246 2.11603 0
    endloop
  endfacet
  facet normal 0 0 -1
    outer loop
      vertex -3.34719 1.32525 0
      vertex -4.96057 -0.626666 0
      vertex -3.1547 1.73431 0
    endloop
  endfacet
  facet normal 0 0 -1
    outer loop
      vertex -3.4869 0.895284 0
      vertex -4.96057 -0.626666 0
      vertex -3.34719 1.32525 0
    endloop
  endfacet
  facet normal 0 0 -1
    outer loop
      vertex -3.57161 0.4512 0
      vertex -4.96057 -0.626666 0
      vertex -3.4869 0.895284 0
    endloop
  endfacet
  facet normal 0 0 -1
    outer loop
      vertex -3.6 0 0
      vertex -4.96057 -0.626666 0
      vertex -3.57161 0.4512 0
    endloop
  endfacet
  facet normal 0 0 -1
    outer loop
      vertex -0.226046 3.5929 0
      vertex 1.54508 4.75528 0
      vertex 0.226046 3.5929 0
    endloop
  endfacet
  facet normal 0 0 -1
    outer loop
      vertex 0.674573 3.53623 0
      vertex 2.1289 4.52413 0
      vertex 1.11246 3.4238 0
    endloop
  endfacet
  facet normal 0 0 -1
    outer loop
      vertex 1.11246 3.4238 0
      vertex 2.67913 4.22164 0
      vertex 1.5328 3.25738 0
    endloop
  endfacet
  facet normal 0 0 -1
    outer loop
      vertex 1.5328 3.25738 0
      vertex 3.18712 3.85257 0
      vertex 1.92898 3.03958 0
    endloop
  endfacet
  facet normal 0 0 -1
    outer loop
      vertex 3.34719 1.32525 0
      vertex 4.84292 1.24345 0
      vertex 3.4869 0.895284 0
    endloop
  endfacet
  facet normal -0.998027 0.0627898 0
    outer loop
      vertex -5 0 0
      vertex -5 0 15
      vertex -4.96057 0.626666 0
    endloop
  endfacet
  facet normal -0.998027 0.0627898 0
    outer loop
      vertex -4.96057 0.626666 0
      vertex -5 0 15
      vertex -4.96057 0.626666 15
    endloop
  endfacet
  facet normal -0.998027 -0.0627898 0
    outer loop
      vertex -5 0 0
      vertex -4.96057 -0.626666 0
      vertex -5 0 15
    endloop
  endfacet
  facet normal -0.998027 -0.0627898 0
    outer loop
      vertex -5 0 15
      vertex -4.96057 -0.626666 0
      vertex -4.96057 -0.626666 15
    endloop
  endfacet
  facet normal -0.982287 -0.187382 0
    outer loop
      vertex -4.96057 -0.626666 0
      vertex -4.84292 -1.24345 0
      vertex -4.96057 -0.626666 15
    endloop
  endfacet
  facet normal -0.982287 -0.187382 0
    outer loop
      vertex -4.96057 -0.626666 15
      vertex -4.84292 -1.24345 0
      vertex -4.84292 -1.24345 15
    endloop
  endfacet
  facet normal -0.951056 -0.309018 0
    outer loop
      vertex -4.84292 -1.24345 0
      vertex -4.64888 -1.84062 0
      vertex -4.84292 -1.24345 15
    endloop
  endfacet
  facet normal -0.951056 -0.309018 0
    outer loop
      vertex -4.84292 -1.24345 15
      vertex -4.64888 -1.84062 0
      vertex -4.64888 -1.84062 15
    endloop
  endfacet
  facet normal -0.904827 -0.42578 0
    outer loop
      vertex -4.64888 -1.84062 0
      vertex -4.38153 -2.40877 0
      vertex -4.64888 -1.84062 15
    endloop
  endfacet
  facet normal -0.904827 -0.42578 0
    outer loop
      vertex -4.64888 -1.84062 15
      vertex -4.38153 -2.40877 0
      vertex -4.38153 -2.40877 15
    endloop
  endfacet
  facet normal -0.844328 -0.535826 0
    outer loop
      vertex -4.38153 -2.40877 0
      vertex -4.04508 -2.93893 0
      vertex -4.38153 -2.40877 15
    endloop
  endfacet
  facet normal -0.844328 -0.535826 0
    outer loop
      vertex -4.38153 -2.40877 15
      vertex -4.04508 -2.93893 0
      vertex -4.04508 -2.93893 15
    endloop
  endfacet
  facet normal -0.770514 -0.637424 0
    outer loop
      vertex -4.04508 -2.93893 0
      vertex -3.64484 -3.42274 0
      vertex -4.04508 -2.93893 15
    endloop
  endfacet
  facet normal -0.770514 -0.637424 0
    outer loop
      vertex -4.04508 -2.93893 15
      vertex -3.64484 -3.42274 0
      vertex -3.64484 -3.42274 15
    endloop
  endfacet
  facet normal -0.684547 -0.728969 0
    outer loop
      vertex -3.64484 -3.42274 15
      vertex -3.64484 -3.42274 0
      vertex -3.18712 -3.85257 0
    endloop
  endfacet
  facet normal -0.684547 -0.728969 0
    outer loop
      vertex -3.18712 -3.85257 15
      vertex -3.64484 -3.42274 15
      vertex -3.18712 -3.85257 0
    endloop
  endfacet
  facet normal -0.587786 -0.809017 0
    outer loop
      vertex -3.18712 -3.85257 15
      vertex -3.18712 -3.85257 0
      vertex -2.67913 -4.22164 0
    endloop
  endfacet
  facet normal -0.587786 -0.809017 0
    outer loop
      vertex -2.67913 -4.22164 15
      vertex -3.18712 -3.85257 15
      vertex -2.67913 -4.22164 0
    endloop
  endfacet
  facet normal -0.481753 -0.876307 0
    outer loop
      vertex -2.67913 -4.22164 15
      vertex -2.67913 -4.22164 0
      vertex -2.1289 -4.52413 0
    endloop
  endfacet
  facet normal -0.481753 -0.876307 0
    outer loop
      vertex -2.1289 -4.52413 15
      vertex -2.67913 -4.22164 15
      vertex -2.1289 -4.52413 0
    endloop
  endfacet
  facet normal -0.368126 -0.929776 0
    outer loop
      vertex -2.1289 -4.52413 15
      vertex -2.1289 -4.52413 0
      vertex -1.54508 -4.75528 0
    endloop
  endfacet
  facet normal -0.368126 -0.929776 0
    outer loop
      vertex -1.54508 -4.75528 15
      vertex -2.1289 -4.52413 15
      vertex -1.54508 -4.75528 0
    endloop
  endfacet
  facet normal -0.248689 -0.968583 0
    outer loop
      vertex -1.54508 -4.75528 15
      vertex -1.54508 -4.75528 0
      vertex -0.936907 -4.91144 0
    endloop
  endfacet
  facet normal -0.248689 -0.968583 0
    outer loop
      vertex -0.936907 -4.91144 15
      vertex -1.54508 -4.75528 15
      vertex -0.936907 -4.91144 0
    endloop
  endfacet
  facet normal -0.125334 -0.992115 0
    outer loop
      vertex -0.936907 -4.91144 15
      vertex -0.936907 -4.91144 0
      vertex -0.313953 -4.99013 0
    endloop
  endfacet
  facet normal -0.125334 -0.992115 0
    outer loop
      vertex -0.313953 -4.99013 15
      vertex -0.936907 -4.91144 15
      vertex -0.313953 -4.99013 0
    endloop
  endfacet
  facet normal 0 -1 0
    outer loop
      vertex -0.313953 -4.99013 15
      vertex -0.313953 -4.99013 0
      vertex 0.313953 -4.99013 0
    endloop
  endfacet
  facet normal 0 -1 0
    outer loop
      vertex 0.313953 -4.99013 15
      vertex -0.313953 -4.99013 15
      vertex 0.313953 -4.99013 0
    endloop
  endfacet
  facet normal 0.125334 -0.992115 0
    outer loop
      vertex 0.313953 -4.99013 15
      vertex 0.313953 -4.99013 0
      vertex 0.936907 -4.91144 0
    endloop
  endfacet
  facet normal 0.125334 -0.992115 0
    outer loop
      vertex 0.936907 -4.91144 15
      vertex 0.313953 -4.99013 15
      vertex 0.936907 -4.91144 0
    endloop
  endfacet
  facet normal 0.248689 -0.968583 0
    outer loop
      vertex 0.936907 -4.91144 15
      vertex 0.936907 -4.91144 0
      vertex 1.54508 -4.75528 0
    endloop
  endfacet
  facet normal 0.248689 -0.968583 0
    outer loop
      vertex 1.54508 -4.75528 15
      vertex 0.936907 -4.91144 15
      vertex 1.54508 -4.75528 0
    endloop
  endfacet
  facet normal 0.368126 -0.929776 0
    outer loop
      vertex 1.54508 -4.75528 15
      vertex 1.54508 -4.75528 0
      vertex 2.1289 -4.52413 0
    endloop
  endfacet
  facet normal 0.368126 -0.929776 0
    outer loop
      vertex 2.1289 -4.52413 15
      vertex 1.54508 -4.75528 15
      vertex 2.1289 -4.52413 0
    endloop
  endfacet
  facet normal 0.481753 -0.876307 0
    outer loop
      vertex 2.1289 -4.52413 15
      vertex 2.1289 -4.52413 0
      vertex 2.67913 -4.22164 0
    endloop
  endfacet
  facet normal 0.481753 -0.876307 0
    outer loop
      vertex 2.67913 -4.22164 15
      vertex 2.1289 -4.52413 15
      vertex 2.67913 -4.22164 0
    endloop
  endfacet
  facet normal 0.587786 -0.809017 0
    outer loop
      vertex 2.67913 -4.22164 15
      vertex 2.67913 -4.22164 0
      vertex 3.18712 -3.85257 0
    endloop
  endfacet
  facet normal 0.587786 -0.809017 0
    outer loop
      vertex 3.18712 -3.85257 15
      vertex 2.67913 -4.22164 15
      vertex 3.18712 -3.85257 0
    endloop
  endfacet
  facet normal 0.684547 -0.728969 0
    outer loop
      vertex 3.18712 -3.85257 15
      vertex 3.18712 -3.85257 0
      vertex 3.64484 -3.42274 0
    endloop
  endfacet
  facet normal 0.684547 -0.728969 0
    outer loop
      vertex 3.64484 -3.42274 15
      vertex 3.18712 -3.85257 15
      vertex 3.64484 -3.42274 0
    endloop
  endfacet
  facet normal 0.770514 -0.637424 0
    outer loop
      vertex 3.64484 -3.42274 15
      vertex 3.64484 -3.42274 0
      vertex 4.04508 -2.93893 0
    endloop
  endfacet
  facet normal 0.770514 -0.637424 0
    outer loop
      vertex 4.04508 -2.93893 15
      vertex 3.64484 -3.42274 15
      vertex 4.04508 -2.93893 0
    endloop
  endfacet
  facet normal 0.844328 -0.535826 0
    outer loop
      vertex 4.04508 -2.93893 15
      vertex 4.04508 -2.93893 0
      vertex 4.38153 -2.40877 0
    endloop
  endfacet
  facet normal 0.844328 -0.535826 0
    outer loop
      vertex 4.38153 -2.40877 15
      vertex 4.04508 -2.93893 15
      vertex 4.38153 -2.40877 0
    endloop
  endfacet
  facet normal 0.904827 -0.42578 0
    outer loop
      vertex 4.38153 -2.40877 15
      vertex 4.38153 -2.40877 0
      vertex 4.64888 -1.84062 0
    endloop
  endfacet
  facet normal 0.904827 -0.42578 0
    outer loop
      vertex 4.64888 -1.84062 15
      vertex 4.38153 -2.40877 15
      vertex 4.64888 -1.84062 0
    endloop
  endfacet
  facet normal 0.951056 -0.309018 0
    outer loop
      vertex 4.64888 -1.84062 15
      vertex 4.64888 -1.84062 0
      vertex 4.84292 -1.24345 0
    endloop
  endfacet
  facet normal 0.951056 -0.309018 0
    outer loop
      vertex 4.84292 -1.24345 15
      vertex 4.64888 -1.84062 15
      vertex 4.84292 -1.24345 0
    endloop
  endfacet
  facet normal 0.982287 -0.187382 0
    outer loop
      vertex 4.84292 -1.24345 15
      vertex 4.84292 -1.24345 0
      vertex 4.96057 -0.626666 0
    endloop
  endfacet
  facet normal 0.982287 -0.187382 0
    outer loop
      vertex 4.96057 -0.626666 15
      vertex 4.84292 -1.24345 15
      vertex 4.96057 -0.626666 0
    endloop
  endfacet
  facet normal 0.998027 -0.0627898 0
    outer loop
      vertex 4.96057 -0.626666 15
      vertex 4.96057 -0.626666 0
      vertex 5 0 0
    endloop
  endfacet
  facet normal 0.998027 -0.0627898 0
    outer loop
      vertex 5 0 15
      vertex 4.96057 -0.626666 15
      vertex 5 0 0
    endloop
  endfacet
  facet normal 0.998027 0.0627898 0
    outer loop
      vertex 5 0 0
      vertex 4.96057 0.626666 0
      vertex 4.96057 0.626666 15
    endloop
  endfacet
  facet normal 0.998027 0.0627898 0
    outer loop
      vertex 5 0 15
      vertex 5 0 0
      vertex 4.96057 0.626666 15
    endloop
  endfacet
  facet normal 0.982287 0.187382 0
    outer loop
      vertex 4.96057 0.626666 0
      vertex 4.84292 1.24345 0
      vertex 4.84292 1.24345 15
    endloop
  endfacet
  facet normal 0.982287 0.187382 0
    outer loop
      vertex 4.96057 0.626666 15
      vertex 4.96057 0.626666 0
      vertex 4.84292 1.24345 15
    endloop
  endfacet
  facet normal 0.951056 0.309018 0
    outer loop
      vertex 4.84292 1.24345 0
      vertex 4.64888 1.84062 0
      vertex 4.64888 1.84062 15
    endloop
  endfacet
  facet normal 0.951056 0.309018 0
    outer loop
      vertex 4.84292 1.24345 15
      vertex 4.84292 1.24345 0
      vertex 4.64888 1.84062 15
    endloop
  endfacet
  facet normal 0.904827 0.42578 0
    outer loop
      vertex 4.64888 1.84062 0
      vertex 4.38153 2.40877 0
      vertex 4.38153 2.40877 15
    endloop
  endfacet
  facet normal 0.904827 0.42578 0
    outer loop
      vertex 4.64888 1.84062 15
      vertex 4.64888 1.84062 0
      vertex 4.38153 2.40877 15
    endloop
  endfacet
  facet normal 0.844328 0.535826 0
    outer loop
      vertex 4.38153 2.40877 0
      vertex 4.04508 2.93893 0
      vertex 4.04508 2.93893 15
    endloop
  endfacet
  facet normal 0.844328 0.535826 0
    outer loop
      vertex 4.38153 2.40877 15
      vertex 4.38153 2.40877 0
      vertex 4.04508 2.93893 15
    endloop
  endfacet
  facet normal 0.770514 0.637424 0
    outer loop
      vertex 4.04508 2.93893 0
      vertex 3.64484 3.42274 0
      vertex 3.64484 3.42274 15
    endloop
  endfacet
  facet normal 0.770514 0.637424 0
    outer loop
      vertex 4.04508 2.93893 15
      vertex 4.04508 2.93893 0
      vertex 3.64484 3.42274 15
    endloop
  endfacet
  facet normal 0.684547 0.728969 0
    outer loop
      vertex 3.18712 3.85257 0
      vertex 3.18712 3.85257 15
      vertex 3.64484 3.42274 0
    endloop
  endfacet
  facet normal 0.684547 0.728969 0
    outer loop
      vertex 3.64484 3.42274 0
      vertex 3.18712 3.85257 15
      vertex 3.64484 3.42274 15
    endloop
  endfacet
  facet normal 0.587786 0.809017 0
    outer loop
      vertex 2.67913 4.22164 0
      vertex 2.67913 4.22164 15
      vertex 3.18712 3.85257 0
    endloop
  endfacet
  facet normal 0.587786 0.809017 0
    outer loop
      vertex 3.18712 3.85257 0
      vertex 2.67913 4.22164 15
      vertex 3.18712 3.85257 15
    endloop
  endfacet
  facet normal 0.481753 0.876307 0
    outer loop
      vertex 2.1289 4.52413 0
      vertex 2.1289 4.52413 15
      vertex 2.67913 4.22164 0
    endloop
  endfacet
  facet normal 0.481753 0.876307 0
    outer loop
      vertex 2.67913 4.22164 0
      vertex 2.1289 4.52413 15
      vertex 2.67913 4.22164 15
    endloop
  endfacet
  facet normal 0.368126 0.929776 0
    outer loop
      vertex 1.54508 4.75528 0
      vertex 1.54508 4.75528 15
      vertex 2.1289 4.52413 0
    endloop
  endfacet
  facet normal 0.368126 0.929776 0
    outer loop
      vertex 2.1289 4.52413 0
      vertex 1.54508 4.75528 15
      vertex 2.1289 4.52413 15
    endloop
  endfacet
  facet normal 0.248689 0.968583 0
    outer loop
      vertex 0.936907 4.91144 0
      vertex 0.936907 4.91144 15
      vertex 1.54508 4.75528 0
    endloop
  endfacet
  facet normal 0.248689 0.968583 0
    outer loop
      vertex 1.54508 4.75528 0
      vertex 0.936907 4.91144 15
      vertex 1.54508 4.75528 15
    endloop
  endfacet
  facet normal 0.125334 0.992115 0
    outer loop
      vertex 0.313953 4.99013 0
      vertex 0.313953 4.99013 15
      vertex 0.936907 4.91144 0
    endloop
  endfacet
  facet normal 0.125334 0.992115 0
    outer loop
      vertex 0.936907 4.91144 0
      vertex 0.313953 4.99013 15
      vertex 0.936907 4.91144 15
    endloop
  endfacet
  facet normal 0 1 0
    outer loop
      vertex -0.313953 4.99013 0
      vertex -0.313953 4.99013 15
      vertex 0.313953 4.99013 0
    endloop
  endfacet
  facet normal 0 1 0
    outer loop
      vertex 0.313953 4.99013 0
      vertex -0.313953 4.99013 15
      vertex 0.313953 4.99013 15
    endloop
  endfacet
  facet normal -0.125334 0.992115 0
    outer loop
      vertex -0.936907 4.91144 0
      vertex -0.936907 4.91144 15
      vertex -0.313953 4.99013 0
    endloop
  endfacet
  facet normal -0.125334 0.992115 0
    outer loop
      vertex -0.313953 4.99013 0
      vertex -0.936907 4.91144 15
      vertex -0.313953 4.99013 15
    endloop
  endfacet
  facet normal -0.248689 0.968583 0
    outer loop
      vertex -1.54508 4.75528 0
      vertex -1.54508 4.75528 15
      vertex -0.936907 4.91144 0
    endloop
  endfacet
  facet normal -0.248689 0.968583 0
    outer loop
      vertex -0.936907 4.91144 0
      vertex -1.54508 4.75528 15
      vertex -0.936907 4.91144 15
    endloop
  endfacet
  facet normal -0.368126 0.929776 0
    outer loop
      vertex -2.1289 4.52413 0
      vertex -2.1289 4.52413 15
      vertex -1.54508 4.75528 0
    endloop
  endfacet
  facet normal -0.368126 0.929776 0
    outer loop
      vertex -1.54508 4.75528 0
      vertex -2.1289 4.52413 15
      vertex -1.54508 4.75528 15
    endloop
  endfacet
  facet normal -0.481753 0.876307 0
    outer loop
      vertex -2.67913 4.22164 0
      vertex -2.67913 4.22164 15
      vertex -2.1289 4.52413 0
    endloop
  endfacet
  facet normal -0.481753 0.876307 0
    outer loop
      vertex -2.1289 4.52413 0
      vertex -2.67913 4.22164 15
      vertex -2.1289 4.52413 15
    endloop
  endfacet
  facet normal -0.587786 0.809017 0
    outer loop
      vertex -3.18712 3.85257 0
      vertex -3.18712 3.85257 15
      vertex -2.67913 4.22164 0
    endloop
  endfacet
  facet normal -0.587786 0.809017 0
    outer loop
      vertex -2.67913 4.22164 0
      vertex -3.18712 3.85257 15
      vertex -2.67913 4.22164 15
    endloop
  endfacet
  facet normal -0.684547 0.728969 0
    outer loop
      vertex -3.64484 3.42274 0
      vertex -3.64484 3.42274 15
      vertex -3.18712 3.85257 0
    endloop
  endfacet
  facet normal -0.684547 0.728969 0
    outer loop
      vertex -3.18712 3.85257 0
      vertex -3.64484 3.42274 15
      vertex -3.18712 3.85257 15
    endloop
  endfacet
  facet normal -0.770514 0.637424 0
    outer loop
      vertex -4.04508 2.93893 0
      vertex -4.04508 2.93893 15
      vertex -3.64484 3.42274 0
    endloop
  endfacet
  facet normal -0.770514 0.637424 0
    outer loop
      vertex -3.64484 3.42274 0
      vertex -4.04508 2.93893 15
      vertex -3.64484 3.42274 15
    endloop
  endfacet
  facet normal -0.844328 0.535826 0
    outer loop
      vertex -4.38153 2.40877 0
      vertex -4.38153 2.40877 15
      vertex -4.04508 2.93893 0
    endloop
  endfacet
  facet normal -0.844328 0.535826 0
    outer loop
      vertex -4.04508 2.93893 0
      vertex -4.38153 2.40877 15
      vertex -4.04508 2.93893 15
    endloop
  endfacet
  facet normal -0.904827 0.42578 0
    outer loop
      vertex -4.64888 1.84062 0
      vertex -4.64888 1.84062 15
      vertex -4.38153 2.40877 0
    endloop
  endfacet
  facet normal -0.904827 0.42578 0
    outer loop
      vertex -4.38153 2.40877 0
      vertex -4.64888 1.84062 15
      vertex -4.38153 2.40877 15
    endloop
  endfacet
  facet normal -0.951056 0.309018 0
    outer loop
      vertex -4.84292 1.24345 0
      vertex -4.84292 1.24345 15
      vertex -4.64888 1.84062 0
    endloop
  endfacet
  facet normal -0.951056 0.309018 0
    outer loop
      vertex -4.64888 1.84062 0
      vertex -4.84292 1.24345 15
      vertex -4.64888 1.84062 15
    endloop
  endfacet
  facet normal -0.982287 0.187382 0
    outer loop
      vertex -4.96057 0.626666 0
      vertex -4.96057 0.626666 15
      vertex -4.84292 1.24345 0
    endloop
  endfacet
  facet normal -0.982287 0.187382 0
    outer loop
      vertex -4.84292 1.24345 0
      vertex -4.96057 0.626666 15
      vertex -4.84292 1.24345 15
    endloop
  endfacet
  facet normal 0.998027 0.0627903 0
    outer loop
      vertex -3.6 0 15
      vertex -3.57161 -0.4512 15
      vertex -3.57161 -0.4512 0
    endloop
  endfacet
  facet normal 0.998027 0.0627903 0
    outer loop
      vertex -3.6 0 0
      vertex -3.6 0 15
      vertex -3.57161 -0.4512 0
    endloop
  endfacet
  facet normal 0.998027 -0.0627903 0
    outer loop
      vertex -3.57161 0.4512 0
      vertex -3.57161 0.4512 15
      vertex -3.6 0 15
    endloop
  endfacet
  facet normal 0.998027 -0.0627903 0
    outer loop
      vertex -3.6 0 0
      vertex -3.57161 0.4512 0
      vertex -3.6 0 15
    endloop
  endfacet
  facet normal 0.982287 -0.187382 0
    outer loop
      vertex -3.4869 0.895284 0
      vertex -3.4869 0.895284 15
      vertex -3.57161 0.4512 15
    endloop
  endfacet
  facet normal 0.982287 -0.187382 0
    outer loop
      vertex -3.57161 0.4512 0
      vertex -3.4869 0.895284 0
      vertex -3.57161 0.4512 15
    endloop
  endfacet
  facet normal 0.951056 -0.309017 0
    outer loop
      vertex -3.34719 1.32525 0
      vertex -3.34719 1.32525 15
      vertex -3.4869 0.895284 15
    endloop
  endfacet
  facet normal 0.951056 -0.309017 0
    outer loop
      vertex -3.4869 0.895284 0
      vertex -3.34719 1.32525 0
      vertex -3.4869 0.895284 15
    endloop
  endfacet
  facet normal 0.904827 -0.425779 0
    outer loop
      vertex -3.1547 1.73431 0
      vertex -3.1547 1.73431 15
      vertex -3.34719 1.32525 15
    endloop
  endfacet
  facet normal 0.904827 -0.425779 0
    outer loop
      vertex -3.34719 1.32525 0
      vertex -3.1547 1.73431 0
      vertex -3.34719 1.32525 15
    endloop
  endfacet
  facet normal 0.844328 -0.535827 0
    outer loop
      vertex -2.91246 2.11603 0
      vertex -2.91246 2.11603 15
      vertex -3.1547 1.73431 15
    endloop
  endfacet
  facet normal 0.844328 -0.535827 0
    outer loop
      vertex -3.1547 1.73431 0
      vertex -2.91246 2.11603 0
      vertex -3.1547 1.73431 15
    endloop
  endfacet
  facet normal 0.770514 -0.637423 0
    outer loop
      vertex -2.62429 2.46437 0
      vertex -2.62429 2.46437 15
      vertex -2.91246 2.11603 15
    endloop
  endfacet
  facet normal 0.770514 -0.637423 0
    outer loop
      vertex -2.91246 2.11603 0
      vertex -2.62429 2.46437 0
      vertex -2.91246 2.11603 15
    endloop
  endfacet
  facet normal 0.684547 -0.728969 0
    outer loop
      vertex -2.29473 2.77385 0
      vertex -2.29473 2.77385 15
      vertex -2.62429 2.46437 15
    endloop
  endfacet
  facet normal 0.684547 -0.728969 0
    outer loop
      vertex -2.62429 2.46437 0
      vertex -2.29473 2.77385 0
      vertex -2.62429 2.46437 15
    endloop
  endfacet
  facet normal 0.587785 -0.809017 0
    outer loop
      vertex -1.92898 3.03958 0
      vertex -1.92898 3.03958 15
      vertex -2.29473 2.77385 15
    endloop
  endfacet
  facet normal 0.587785 -0.809017 0
    outer loop
      vertex -2.29473 2.77385 0
      vertex -1.92898 3.03958 0
      vertex -2.29473 2.77385 15
    endloop
  endfacet
  facet normal 0.481752 -0.876307 0
    outer loop
      vertex -1.5328 3.25738 0
      vertex -1.5328 3.25738 15
      vertex -1.92898 3.03958 15
    endloop
  endfacet
  facet normal 0.481752 -0.876307 0
    outer loop
      vertex -1.92898 3.03958 0
      vertex -1.5328 3.25738 0
      vertex -1.92898 3.03958 15
    endloop
  endfacet
  facet normal 0.368125 -0.929776 0
    outer loop
      vertex -1.11246 3.4238 0
      vertex -1.11246 3.4238 15
      vertex -1.5328 3.25738 15
    endloop
  endfacet
  facet normal 0.368125 -0.929776 0
    outer loop
      vertex -1.5328 3.25738 0
      vertex -1.11246 3.4238 0
      vertex -1.5328 3.25738 15
    endloop
  endfacet
  facet normal 0.248691 -0.968583 0
    outer loop
      vertex -0.674573 3.53623 0
      vertex -0.674573 3.53623 15
      vertex -1.11246 3.4238 15
    endloop
  endfacet
  facet normal 0.248691 -0.968583 0
    outer loop
      vertex -1.11246 3.4238 0
      vertex -0.674573 3.53623 0
      vertex -1.11246 3.4238 15
    endloop
  endfacet
  facet normal 0.125333 -0.992115 0
    outer loop
      vertex -0.226046 3.5929 0
      vertex -0.226046 3.5929 15
      vertex -0.674573 3.53623 15
    endloop
  endfacet
  facet normal 0.125333 -0.992115 0
    outer loop
      vertex -0.674573 3.53623 0
      vertex -0.226046 3.5929 0
      vertex -0.674573 3.53623 15
    endloop
  endfacet
  facet normal 0 -1 0
    outer loop
      vertex 0.226046 3.5929 0
      vertex 0.226046 3.5929 15
      vertex -0.226046 3.5929 15
    endloop
  endfacet
  facet normal 0 -1 0
    outer loop
      vertex -0.226046 3.5929 0
      vertex 0.226046 3.5929 0
      vertex -0.226046 3.5929 15
    endloop
  endfacet
  facet normal -0.125333 -0.992115 0
    outer loop
      vertex 0.674573 3.53623 0
      vertex 0.674573 3.53623 15
      vertex 0.226046 3.5929 15
    endloop
  endfacet
  facet normal -0.125333 -0.992115 0
    outer loop
      vertex 0.226046 3.5929 0
      vertex 0.674573 3.53623 0
      vertex 0.226046 3.5929 15
    endloop
  endfacet
  facet normal -0.248691 -0.968583 0
    outer loop
      vertex 1.11246 3.4238 0
      vertex 1.11246 3.4238 15
      vertex 0.674573 3.53623 15
    endloop
  endfacet
  facet normal -0.248691 -0.968583 0
    outer loop
      vertex 0.674573 3.53623 0
      vertex 1.11246 3.4238 0
      vertex 0.674573 3.53623 15
    endloop
  endfacet
  facet normal -0.368125 -0.929776 0
    outer loop
      vertex 1.5328 3.25738 0
      vertex 1.5328 3.25738 15
      vertex 1.11246 3.4238 15
    endloop
  endfacet
  facet normal -0.368125 -0.929776 0
    outer loop
      vertex 1.11246 3.4238 0
      vertex 1.5328 3.25738 0
      vertex 1.11246 3.4238 15
    endloop
  endfacet
  facet normal -0.481752 -0.876307 0
    outer loop
      vertex 1.92898 3.03958 0
      vertex 1.92898 3.03958 15
      vertex 1.5328 3.25738 15
    endloop
  endfacet
  facet normal -0.481752 -0.876307 0
    outer loop
      vertex 1.5328 3.25738 0
      vertex 1.92898 3.03958 0
      vertex 1.5328 3.25738 15
    endloop
  endfacet
  facet normal -0.587785 -0.809017 0
    outer loop
      vertex 2.29473 2.77385 0
      vertex 2.29473 2.77385 15
      vertex 1.92898 3.03958 15
    endloop
  endfacet
  facet normal -0.587785 -0.809017 0
    outer loop
      vertex 1.92898 3.03958 0
      vertex 2.29473 2.77385 0
      vertex 1.92898 3.03958 15
    endloop
  endfacet
  facet normal -0.684547 -0.728969 0
    outer loop
      vertex 2.62429 2.46437 0
      vertex 2.62429 2.46437 15
      vertex 2.29473 2.77385 15
    endloop
  endfacet
  facet normal -0.684547 -0.728969 0
    outer loop
      vertex 2.29473 2.77385 0
      vertex 2.62429 2.46437 0
      vertex 2.29473 2.77385 15
    endloop
  endfacet
  facet normal -0.770514 -0.637423 0
    outer loop
      vertex 2.91246 2.11603 15
      vertex 2.62429 2.46437 15
      vertex 2.91246 2.11603 0
    endloop
  endfacet
  facet normal -0.770514 -0.637423 0
    outer loop
      vertex 2.91246 2.11603 0
      vertex 2.62429 2.46437 15
      vertex 2.62429 2.46437 0
    endloop
  endfacet
  facet normal -0.844328 -0.535827 0
    outer loop
      vertex 3.1547 1.73431 15
      vertex 2.91246 2.11603 15
      vertex 3.1547 1.73431 0
    endloop
  endfacet
  facet normal -0.844328 -0.535827 0
    outer loop
      vertex 3.1547 1.73431 0
      vertex 2.91246 2.11603 15
      vertex 2.91246 2.11603 0
    endloop
  endfacet
  facet normal -0.904827 -0.425779 0
    outer loop
      vertex 3.34719 1.32525 15
      vertex 3.1547 1.73431 15
      vertex 3.34719 1.32525 0
    endloop
  endfacet
  facet normal -0.904827 -0.425779 0
    outer loop
      vertex 3.34719 1.32525 0
      vertex 3.1547 1.73431 15
      vertex 3.1547 1.73431 0
    endloop
  endfacet
  facet normal -0.951056 -0.309017 0
    outer loop
      vertex 3.4869 0.895284 15
      vertex 3.34719 1.32525 15
      vertex 3.4869 0.895284 0
    endloop
  endfacet
  facet normal -0.951056 -0.309017 0
    outer loop
      vertex 3.4869 0.895284 0
      vertex 3.34719 1.32525 15
      vertex 3.34719 1.32525 0
    endloop
  endfacet
  facet normal -0.982287 -0.187382 0
    outer loop
      vertex 3.57161 0.4512 15
      vertex 3.4869 0.895284 15
      vertex 3.57161 0.4512 0
    endloop
  endfacet
  facet normal -0.982287 -0.187382 0
    outer loop
      vertex 3.57161 0.4512 0
      vertex 3.4869 0.895284 15
      vertex 3.4869 0.895284 0
    endloop
  endfacet
  facet normal -0.998027 -0.0627903 0
    outer loop
      vertex 3.6 0 15
      vertex 3.57161 0.4512 15
      vertex 3.6 0 0
    endloop
  endfacet
  facet normal -0.998027 -0.0627903 0
    outer loop
      vertex 3.6 0 0
      vertex 3.57161 0.4512 15
      vertex 3.57161 0.4512 0
    endloop
  endfacet
  facet normal -0.998027 0.0627903 0
    outer loop
      vertex 3.6 0 15
      vertex 3.6 0 0
      vertex 3.57161 -0.4512 15
    endloop
  endfacet
  facet normal -0.998027 0.0627903 0
    outer loop
      vertex 3.57161 -0.4512 15
      vertex 3.6 0 0
      vertex 3.57161 -0.4512 0
    endloop
  endfacet
  facet normal -0.982287 0.187382 0
    outer loop
      vertex 3.57161 -0.4512 15
      vertex 3.57161 -0.4512 0
      vertex 3.4869 -0.895284 15
    endloop
  endfacet
  facet normal -0.982287 0.187382 0
    outer loop
      vertex 3.4869 -0.895284 15
      vertex 3.57161 -0.4512 0
      vertex 3.4869 -0.895284 0
    endloop
  endfacet
  facet normal -0.951056 0.309017 0
    outer loop
      vertex 3.4869 -0.895284 15
      vertex 3.4869 -0.895284 0
      vertex 3.34719 -1.32525 15
    endloop
  endfacet
  facet normal -0.951056 0.309017 0
    outer loop
      vertex 3.34719 -1.32525 15
      vertex 3.4869 -0.895284 0
      vertex 3.34719 -1.32525 0
    endloop
  endfacet
  facet normal -0.904827 0.425779 0
    outer loop
      vertex 3.34719 -1.32525 15
      vertex 3.34719 -1.32525 0
      vertex 3.1547 -1.73431 15
    endloop
  endfacet
  facet normal -0.904827 0.425779 0
    outer loop
      vertex 3.1547 -1.73431 15
      vertex 3.34719 -1.32525 0
      vertex 3.1547 -1.73431 0
    endloop
  endfacet
  facet normal -0.844328 0.535827 0
    outer loop
      vertex 3.1547 -1.73431 15
      vertex 3.1547 -1.73431 0
      vertex 2.91246 -2.11603 15
    endloop
  endfacet
  facet normal -0.844328 0.535827 0
    outer loop
      vertex 2.91246 -2.11603 15
      vertex 3.1547 -1.73431 0
      vertex 2.91246 -2.11603 0
    endloop
  endfacet
  facet normal -0.770514 0.637423 0
    outer loop
      vertex 2.91246 -2.11603 15
      vertex 2.91246 -2.11603 0
      vertex 2.62429 -2.46437 15
    endloop
  endfacet
  facet normal -0.770514 0.637423 0
    outer loop
      vertex 2.62429 -2.46437 15
      vertex 2.91246 -2.11603 0
      vertex 2.62429 -2.46437 0
    endloop
  endfacet
  facet normal -0.684547 0.728969 0
    outer loop
      vertex 2.62429 -2.46437 15
      vertex 2.62429 -2.46437 0
      vertex 2.29473 -2.77385 15
    endloop
  endfacet
  facet normal -0.684547 0.728969 0
    outer loop
      vertex 2.29473 -2.77385 15
      vertex 2.62429 -2.46437 0
      vertex 2.29473 -2.77385 0
    endloop
  endfacet
  facet normal -0.587785 0.809017 0
    outer loop
      vertex 2.29473 -2.77385 15
      vertex 2.29473 -2.77385 0
      vertex 1.92898 -3.03958 15
    endloop
  endfacet
  facet normal -0.587785 0.809017 0
    outer loop
      vertex 1.92898 -3.03958 15
      vertex 2.29473 -2.77385 0
      vertex 1.92898 -3.03958 0
    endloop
  endfacet
  facet normal -0.481752 0.876307 0
    outer loop
      vertex 1.92898 -3.03958 15
      vertex 1.92898 -3.03958 0
      vertex 1.5328 -3.25738 15
    endloop
  endfacet
  facet normal -0.481752 0.876307 0
    outer loop
      vertex 1.5328 -3.25738 15
      vertex 1.92898 -3.03958 0
      vertex 1.5328 -3.25738 0
    endloop
  endfacet
  facet normal -0.368125 0.929776 0
    outer loop
      vertex 1.5328 -3.25738 15
      vertex 1.5328 -3.25738 0
      vertex 1.11246 -3.4238 15
    endloop
  endfacet
  facet normal -0.368125 0.929776 0
    outer loop
      vertex 1.11246 -3.4238 15
      vertex 1.5328 -3.25738 0
      vertex 1.11246 -3.4238 0
    endloop
  endfacet
  facet normal -0.248691 0.968583 0
    outer loop
      vertex 1.11246 -3.4238 15
      vertex 1.11246 -3.4238 0
      vertex 0.674573 -3.53623 15
    endloop
  endfacet
  facet normal -0.248691 0.968583 0
    outer loop
      vertex 0.674573 -3.53623 15
      vertex 1.11246 -3.4238 0
      vertex 0.674573 -3.53623 0
    endloop
  endfacet
  facet normal -0.125333 0.992115 0
    outer loop
      vertex 0.674573 -3.53623 15
      vertex 0.674573 -3.53623 0
      vertex 0.226046 -3.5929 15
    endloop
  endfacet
  facet normal -0.125333 0.992115 0
    outer loop
      vertex 0.226046 -3.5929 15
      vertex 0.674573 -3.53623 0
      vertex 0.226046 -3.5929 0
    endloop
  endfacet
  facet normal 0 1 0
    outer loop
      vertex 0.226046 -3.5929 15
      vertex 0.226046 -3.5929 0
      vertex -0.226046 -3.5929 15
    endloop
  endfacet
  facet normal 0 1 0
    outer loop
      vertex -0.226046 -3.5929 15
      vertex 0.226046 -3.5929 0
      vertex -0.226046 -3.5929 0
    endloop
  endfacet
  facet normal 0.125333 0.992115 0
    outer loop
      vertex -0.226046 -3.5929 15
      vertex -0.226046 -3.5929 0
      vertex -0.674573 -3.53623 15
    endloop
  endfacet
  facet normal 0.125333 0.992115 0
    outer loop
      vertex -0.674573 -3.53623 15
      vertex -0.226046 -3.5929 0
      vertex -0.674573 -3.53623 0
    endloop
  endfacet
  facet normal 0.248691 0.968583 0
    outer loop
      vertex -0.674573 -3.53623 15
      vertex -0.674573 -3.53623 0
      vertex -1.11246 -3.4238 15
    endloop
  endfacet
  facet normal 0.248691 0.968583 0
    outer loop
      vertex -1.11246 -3.4238 15
      vertex -0.674573 -3.53623 0
      vertex -1.11246 -3.4238 0
    endloop
  endfacet
  facet normal 0.368125 0.929776 0
    outer loop
      vertex -1.11246 -3.4238 15
      vertex -1.11246 -3.4238 0
      vertex -1.5328 -3.25738 15
    endloop
  endfacet
  facet normal 0.368125 0.929776 0
    outer loop
      vertex -1.5328 -3.25738 15
      vertex -1.11246 -3.4238 0
      vertex -1.5328 -3.25738 0
    endloop
  endfacet
  facet normal 0.481752 0.876307 0
    outer loop
      vertex -1.5328 -3.25738 15
      vertex -1.5328 -3.25738 0
      vertex -1.92898 -3.03958 15
    endloop
  endfacet
  facet normal 0.481752 0.876307 0
    outer loop
      vertex -1.92898 -3.03958 15
      vertex -1.5328 -3.25738 0
      vertex -1.92898 -3.03958 0
    endloop
  endfacet
  facet normal 0.587785 0.809017 0
    outer loop
      vertex -1.92898 -3.03958 15
      vertex -1.92898 -3.03958 0
      vertex -2.29473 -2.77385 15
    endloop
  endfacet
  facet normal 0.587785 0.809017 0
    outer loop
      vertex -2.29473 -2.77385 15
      vertex -1.92898 -3.03958 0
      vertex -2.29473 -2.77385 0
    endloop
  endfacet
  facet normal 0.684547 0.728969 0
    outer loop
      vertex -2.29473 -2.77385 15
      vertex -2.29473 -2.77385 0
      vertex -2.62429 -2.46437 15
    endloop
  endfacet
  facet normal 0.684547 0.728969 0
    outer loop
      vertex -2.62429 -2.46437 15
      vertex -2.29473 -2.77385 0
      vertex -2.62429 -2.46437 0
    endloop
  endfacet
  facet normal 0.770514 0.637423 0
    outer loop
      vertex -2.91246 -2.11603 15
      vertex -2.62429 -2.46437 15
      vertex -2.62429 -2.46437 0
    endloop
  endfacet
  facet normal 0.770514 0.637423 0
    outer loop
      vertex -2.91246 -2.11603 0
      vertex -2.91246 -2.11603 15
      vertex -2.62429 -2.46437 0
    endloop
  endfacet
  facet normal 0.844328 0.535827 0
    outer loop
      vertex -3.1547 -1.73431 15
      vertex -2.91246 -2.11603 15
      vertex -2.91246 -2.11603 0
    endloop
  endfacet
  facet normal 0.844328 0.535827 0
    outer loop
      vertex -3.1547 -1.73431 0
      vertex -3.1547 -1.73431 15
      vertex -2.91246 -2.11603 0
    endloop
  endfacet
  facet normal 0.904827 0.425779 0
    outer loop
      vertex -3.34719 -1.32525 15
      vertex -3.1547 -1.73431 15
      vertex -3.1547 -1.73431 0
    endloop
  endfacet
  facet normal 0.904827 0.425779 0
    outer loop
      vertex -3.34719 -1.32525 0
      vertex -3.34719 -1.32525 15
      vertex -3.1547 -1.73431 0
    endloop
  endfacet
  facet normal 0.951056 0.309017 0
    outer loop
      vertex -3.4869 -0.895284 15
      vertex -3.34719 -1.32525 15
      vertex -3.34719 -1.32525 0
    endloop
  endfacet
  facet normal 0.951056 0.309017 0
    outer loop
      vertex -3.4869 -0.895284 0
      vertex -3.4869 -0.895284 15
      vertex -3.34719 -1.32525 0
    endloop
  endfacet
  facet normal 0.982287 0.187382 0
    outer loop
      vertex -3.57161 -0.4512 15
      vertex -3.4869 -0.895284 15
      vertex -3.4869 -0.895284 0
    endloop
  endfacet
  facet normal 0.982287 0.187382 0
    outer loop
      vertex -3.57161 -0.4512 0
      vertex -3.57161 -0.4512 15
      vertex -3.4869 -0.895284 0
    endloop
  endfacet
  facet normal 0 0 1
    outer loop
      vertex -4.96057 0.626666 15
      vertex -5 0 15
      vertex -4.96057 -0.626666 15
    endloop
  endfacet
  facet normal 0 0 1
    outer loop
      vertex -4.64888 -1.84062 15
      vertex -4.96057 0.626666 15
      vertex -4.84292 -1.24345 15
    endloop
  endfacet
  facet normal 0 0 1
    outer loop
      vertex -4.84292 -1.24345 15
      vertex -4.96057 0.626666 15
      vertex -4.96057 -0.626666 15
    endloop
  endfacet
  facet normal 0 0 1
    outer loop
      vertex -4.38153 -2.40877 15
      vertex -4.96057 0.626666 15
      vertex -4.64888 -1.84062 15
    endloop
  endfacet
  facet normal 0 0 1
    outer loop
      vertex -4.04508 -2.93893 15
      vertex -4.96057 0.626666 15
      vertex -4.38153 -2.40877 15
    endloop
  endfacet
  facet normal 0 0 1
    outer loop
      vertex -3.64484 -3.42274 15
      vertex -4.96057 0.626666 15
      vertex -4.04508 -2.93893 15
    endloop
  endfacet
  facet normal 0 0 1
    outer loop
      vertex -3.18712 -3.85257 15
      vertex -4.96057 0.626666 15
      vertex -3.64484 -3.42274 15
    endloop
  endfacet
  facet normal 0 0 1
    outer loop
      vertex -2.67913 -4.22164 15
      vertex -4.96057 0.626666 15
      vertex -3.18712 -3.85257 15
    endloop
  endfacet
  facet normal 0 0 1
    outer loop
      vertex -2.1289 -4.52413 15
      vertex -4.96057 0.626666 15
      vertex -2.67913 -4.22164 15
    endloop
  endfacet
  facet normal 0 0 1
    outer loop
      vertex -1.54508 -4.75528 15
      vertex -4.96057 0.626666 15
      vertex -2.1289 -4.52413 15
    endloop
  endfacet
  facet normal 0 0 1
    outer loop
      vertex -0.936907 -4.91144 15
      vertex -4.96057 0.626666 15
      vertex -1.54508 -4.75528 15
    endloop
  endfacet
  facet normal 0 0 1
    outer loop
      vertex -2.91246 -2.11603 15
      vertex -4.96057 0.626666 15
      vertex -0.936907 -4.91144 15
    endloop
  endfacet
  facet normal 0 0 1
    outer loop
      vertex -2.91246 -2.11603 15
      vertex -3.1547 -1.73431 15
      vertex -4.96057 0.626666 15
    endloop
  endfacet
  facet normal 0 0 1
    outer loop
      vertex -1.5328 -3.25738 15
      vertex -1.92898 -3.03958 15
      vertex -0.313953 -4.99013 15
    endloop
  endfacet
  facet normal 0 0 1
    outer loop
      vertex 3.1547 -1.73431 15
      vertex 2.91246 -2.11603 15
      vertex 4.38153 -2.40877 15
    endloop
  endfacet
  facet normal 0 0 1
    outer loop
      vertex 3.34719 -1.32525 15
      vertex 3.1547 -1.73431 15
      vertex 4.64888 -1.84062 15
    endloop
  endfacet
  facet normal 0 0 1
    outer loop
      vertex -3.57161 0.4512 15
      vertex -3.4869 0.895284 15
      vertex -4.96057 0.626666 15
    endloop
  endfacet
  facet normal 0 0 1
    outer loop
      vertex 2.91246 -2.11603 15
      vertex 2.62429 -2.46437 15
      vertex 4.04508 -2.93893 15
    endloop
  endfacet
  facet normal 0 0 1
    outer loop
      vertex 3.1547 1.73431 15
      vertex 3.34719 1.32525 15
      vertex 4.64888 1.84062 15
    endloop
  endfacet
  facet normal 0 0 1
    outer loop
      vertex 1.5328 3.25738 15
      vertex 1.92898 3.03958 15
      vertex 3.18712 3.85257 15
    endloop
  endfacet
  facet normal 0 0 1
    outer loop
      vertex 0.226046 3.5929 15
      vertex 0.674573 3.53623 15
      vertex 2.1289 4.52413 15
    endloop
  endfacet
  facet normal 0 0 1
    outer loop
      vertex -0.674573 3.53623 15
      vertex -0.226046 3.5929 15
      vertex 1.54508 4.75528 15
    endloop
  endfacet
  facet normal 0 0 1
    outer loop
      vertex -0.313953 4.99013 15
      vertex -4.96057 0.626666 15
      vertex 0.313953 4.99013 15
    endloop
  endfacet
  facet normal 0 0 1
    outer loop
      vertex -0.936907 4.91144 15
      vertex -4.96057 0.626666 15
      vertex -0.313953 4.99013 15
    endloop
  endfacet
  facet normal 0 0 1
    outer loop
      vertex -1.54508 4.75528 15
      vertex -4.96057 0.626666 15
      vertex -0.936907 4.91144 15
    endloop
  endfacet
  facet normal 0 0 1
    outer loop
      vertex -2.1289 4.52413 15
      vertex -4.96057 0.626666 15
      vertex -1.54508 4.75528 15
    endloop
  endfacet
  facet normal 0 0 1
    outer loop
      vertex -2.67913 4.22164 15
      vertex -4.96057 0.626666 15
      vertex -2.1289 4.52413 15
    endloop
  endfacet
  facet normal 0 0 1
    outer loop
      vertex -3.18712 3.85257 15
      vertex -4.96057 0.626666 15
      vertex -2.67913 4.22164 15
    endloop
  endfacet
  facet normal 0 0 1
    outer loop
      vertex -3.64484 3.42274 15
      vertex -4.96057 0.626666 15
      vertex -3.18712 3.85257 15
    endloop
  endfacet
  facet normal 0 0 1
    outer loop
      vertex -4.04508 2.93893 15
      vertex -4.96057 0.626666 15
      vertex -3.64484 3.42274 15
    endloop
  endfacet
  facet normal 0 0 1
    outer loop
      vertex -4.38153 2.40877 15
      vertex -4.96057 0.626666 15
      vertex -4.04508 2.93893 15
    endloop
  endfacet
  facet normal 0 0 1
    outer loop
      vertex -4.64888 1.84062 15
      vertex -4.96057 0.626666 15
      vertex -4.38153 2.40877 15
    endloop
  endfacet
  facet normal 0 0 1
    outer loop
      vertex -4.84292 1.24345 15
      vertex -4.96057 0.626666 15
      vertex -4.64888 1.84062 15
    endloop
  endfacet
  facet normal 0 0 1
    outer loop
      vertex -0.226046 -3.5929 15
      vertex -0.674573 -3.53623 15
      vertex 0.936907 -4.91144 15
    endloop
  endfacet
  facet normal 0 0 1
    outer loop
      vertex 1.92898 -3.03958 15
      vertex 1.5328 -3.25738 15
      vertex 3.18712 -3.85257 15
    endloop
  endfacet
  facet normal 0 0 1
    outer loop
      vertex 3.4869 -0.895284 15
      vertex 3.34719 -1.32525 15
      vertex 4.84292 -1.24345 15
    endloop
  endfacet
  facet normal 0 0 1
    outer loop
      vertex -3.4869 0.895284 15
      vertex -3.34719 1.32525 15
      vertex -4.96057 0.626666 15
    endloop
  endfacet
  facet normal 0 0 1
    outer loop
      vertex 3.34719 1.32525 15
      vertex 3.4869 0.895284 15
      vertex 4.84292 1.24345 15
    endloop
  endfacet
  facet normal 0 0 1
    outer loop
      vertex 1.92898 3.03958 15
      vertex 2.29473 2.77385 15
      vertex 3.64484 3.42274 15
    endloop
  endfacet
  facet normal 0 0 1
    outer loop
      vertex -3.1547 1.73431 15
      vertex -2.91246 2.11603 15
      vertex -4.96057 0.626666 15
    endloop
  endfacet
  facet normal 0 0 1
    outer loop
      vertex -3.34719 -1.32525 15
      vertex -3.4869 -0.895284 15
      vertex -4.96057 0.626666 15
    endloop
  endfacet
  facet normal 0 0 1
    outer loop
      vertex -2.62429 2.46437 15
      vertex -4.96057 0.626666 15
      vertex -2.91246 2.11603 15
    endloop
  endfacet
  facet normal 0 0 1
    outer loop
      vertex -2.29473 2.77385 15
      vertex -4.96057 0.626666 15
      vertex -2.62429 2.46437 15
    endloop
  endfacet
  facet normal 0 0 1
    outer loop
      vertex -1.92898 3.03958 15
      vertex -1.5328 3.25738 15
      vertex 0.313953 4.99013 15
    endloop
  endfacet
  facet normal 0 0 1
    outer loop
      vertex 0.313953 4.99013 15
      vertex -4.96057 0.626666 15
      vertex -2.29473 2.77385 15
    endloop
  endfacet
  facet normal 0 0 1
    outer loop
      vertex -1.11246 3.4238 15
      vertex -0.674573 3.53623 15
      vertex 0.936907 4.91144 15
    endloop
  endfacet
  facet normal 0 0 1
    outer loop
      vertex 0.313953 4.99013 15
      vertex -1.5328 3.25738 15
      vertex 0.936907 4.91144 15
    endloop
  endfacet
  facet normal 0 0 1
    outer loop
      vertex -1.5328 3.25738 15
      vertex -1.11246 3.4238 15
      vertex 0.936907 4.91144 15
    endloop
  endfacet
  facet normal 0 0 1
    outer loop
      vertex 0.936907 4.91144 15
      vertex -0.674573 3.53623 15
      vertex 1.54508 4.75528 15
    endloop
  endfacet
  facet normal 0 0 1
    outer loop
      vertex -2.29473 2.77385 15
      vertex -1.92898 3.03958 15
      vertex 0.313953 4.99013 15
    endloop
  endfacet
  facet normal 0 0 1
    outer loop
      vertex 1.54508 4.75528 15
      vertex -0.226046 3.5929 15
      vertex 2.1289 4.52413 15
    endloop
  endfacet
  facet normal 0 0 1
    outer loop
      vertex -0.226046 3.5929 15
      vertex 0.226046 3.5929 15
      vertex 2.1289 4.52413 15
    endloop
  endfacet
  facet normal 0 0 1
    outer loop
      vertex 2.1289 4.52413 15
      vertex 0.674573 3.53623 15
      vertex 2.67913 4.22164 15
    endloop
  endfacet
  facet normal 0 0 1
    outer loop
      vertex 0.674573 3.53623 15
      vertex 1.11246 3.4238 15
      vertex 2.67913 4.22164 15
    endloop
  endfacet
  facet normal 0 0 1
    outer loop
      vertex 2.67913 4.22164 15
      vertex 1.11246 3.4238 15
      vertex 3.18712 3.85257 15
    endloop
  endfacet
  facet normal 0 0 1
    outer loop
      vertex 1.11246 3.4238 15
      vertex 1.5328 3.25738 15
      vertex 3.18712 3.85257 15
    endloop
  endfacet
  facet normal 0 0 1
    outer loop
      vertex 3.18712 3.85257 15
      vertex 1.92898 3.03958 15
      vertex 3.64484 3.42274 15
    endloop
  endfacet
  facet normal 0 0 1
    outer loop
      vertex 2.62429 2.46437 15
      vertex 2.91246 2.11603 15
      vertex 4.38153 2.40877 15
    endloop
  endfacet
  facet normal 0 0 1
    outer loop
      vertex 3.64484 3.42274 15
      vertex 2.29473 2.77385 15
      vertex 4.04508 2.93893 15
    endloop
  endfacet
  facet normal 0 0 1
    outer loop
      vertex -3.34719 1.32525 15
      vertex -3.1547 1.73431 15
      vertex -4.96057 0.626666 15
    endloop
  endfacet
  facet normal 0 0 1
    outer loop
      vertex 4.04508 2.93893 15
      vertex 2.62429 2.46437 15
      vertex 4.38153 2.40877 15
    endloop
  endfacet
  facet normal 0 0 1
    outer loop
      vertex 4.38153 2.40877 15
      vertex 2.91246 2.11603 15
      vertex 4.64888 1.84062 15
    endloop
  endfacet
  facet normal 0 0 1
    outer loop
      vertex 2.91246 2.11603 15
      vertex 3.1547 1.73431 15
      vertex 4.64888 1.84062 15
    endloop
  endfacet
  facet normal 0 0 1
    outer loop
      vertex 4.64888 1.84062 15
      vertex 3.34719 1.32525 15
      vertex 4.84292 1.24345 15
    endloop
  endfacet
  facet normal 0 0 1
    outer loop
      vertex 2.29473 2.77385 15
      vertex 2.62429 2.46437 15
      vertex 4.04508 2.93893 15
    endloop
  endfacet
  facet normal 0 0 1
    outer loop
      vertex 4.84292 1.24345 15
      vertex 3.4869 0.895284 15
      vertex 4.96057 0.626666 15
    endloop
  endfacet
  facet normal 0 0 1
    outer loop
      vertex 4.96057 0.626666 15
      vertex 3.57161 0.4512 15
      vertex 5 0 15
    endloop
  endfacet
  facet normal 0 0 1
    outer loop
      vertex 3.57161 0.4512 15
      vertex 3.6 0 15
      vertex 5 0 15
    endloop
  endfacet
  facet normal 0 0 1
    outer loop
      vertex 5 0 15
      vertex 3.6 0 15
      vertex 4.96057 -0.626666 15
    endloop
  endfacet
  facet normal 0 0 1
    outer loop
      vertex 4.96057 -0.626666 15
      vertex 3.57161 -0.4512 15
      vertex 4.84292 -1.24345 15
    endloop
  endfacet
  facet normal 0 0 1
    outer loop
      vertex 3.4869 0.895284 15
      vertex 3.57161 0.4512 15
      vertex 4.96057 0.626666 15
    endloop
  endfacet
  facet normal 0 0 1
    outer loop
      vertex 3.57161 -0.4512 15
      vertex 3.4869 -0.895284 15
      vertex 4.84292 -1.24345 15
    endloop
  endfacet
  facet normal 0 0 1
    outer loop
      vertex 4.84292 -1.24345 15
      vertex 3.34719 -1.32525 15
      vertex 4.64888 -1.84062 15
    endloop
  endfacet
  facet normal 0 0 1
    outer loop
      vertex 4.64888 -1.84062 15
      vertex 3.1547 -1.73431 15
      vertex 4.38153 -2.40877 15
    endloop
  endfacet
  facet normal 0 0 1
    outer loop
      vertex 3.6 0 15
      vertex 3.57161 -0.4512 15
      vertex 4.96057 -0.626666 15
    endloop
  endfacet
  facet normal 0 0 1
    outer loop
      vertex 4.38153 -2.40877 15
      vertex 2.91246 -2.11603 15
      vertex 4.04508 -2.93893 15
    endloop
  endfacet
  facet normal 0 0 1
    outer loop
      vertex 4.04508 -2.93893 15
      vertex 2.62429 -2.46437 15
      vertex 3.64484 -3.42274 15
    endloop
  endfacet
  facet normal 0 0 1
    outer loop
      vertex 2.62429 -2.46437 15
      vertex 2.29473 -2.77385 15
      vertex 3.64484 -3.42274 15
    endloop
  endfacet
  facet normal 0 0 1
    outer loop
      vertex 3.64484 -3.42274 15
      vertex 1.92898 -3.03958 15
      vertex 3.18712 -3.85257 15
    endloop
  endfacet
  facet normal 0 0 1
    outer loop
      vertex 3.18712 -3.85257 15
      vertex 1.5328 -3.25738 15
      vertex 2.67913 -4.22164 15
    endloop
  endfacet
  facet normal 0 0 1
    outer loop
      vertex 2.67913 -4.22164 15
      vertex 1.11246 -3.4238 15
      vertex 2.1289 -4.52413 15
    endloop
  endfacet
  facet normal 0 0 1
    outer loop
      vertex 2.1289 -4.52413 15
      vertex 0.674573 -3.53623 15
      vertex 1.54508 -4.75528 15
    endloop
  endfacet
  facet normal 0 0 1
    outer loop
      vertex 0.674573 -3.53623 15
      vertex 0.226046 -3.5929 15
      vertex 1.54508 -4.75528 15
    endloop
  endfacet
  facet normal 0 0 1
    outer loop
      vertex 1.54508 -4.75528 15
      vertex -0.226046 -3.5929 15
      vertex 0.936907 -4.91144 15
    endloop
  endfacet
  facet normal 0 0 1
    outer loop
      vertex 1.5328 -3.25738 15
      vertex 1.11246 -3.4238 15
      vertex 2.67913 -4.22164 15
    endloop
  endfacet
  facet normal 0 0 1
    outer loop
      vertex 0.936907 -4.91144 15
      vertex -0.674573 -3.53623 15
      vertex 0.313953 -4.99013 15
    endloop
  endfacet
  facet normal 0 0 1
    outer loop
      vertex -0.674573 -3.53623 15
      vertex -1.11246 -3.4238 15
      vertex 0.313953 -4.99013 15
    endloop
  endfacet
  facet normal 0 0 1
    outer loop
      vertex 0.313953 -4.99013 15
      vertex -1.5328 -3.25738 15
      vertex -0.313953 -4.99013 15
    endloop
  endfacet
  facet normal 0 0 1
    outer loop
      vertex -0.313953 -4.99013 15
      vertex -1.92898 -3.03958 15
      vertex -0.936907 -4.91144 15
    endloop
  endfacet
  facet normal 0 0 1
    outer loop
      vertex -1.92898 -3.03958 15
      vertex -2.29473 -2.77385 15
      vertex -0.936907 -4.91144 15
    endloop
  endfacet
  facet normal 0 0 1
    outer loop
      vertex -2.29473 -2.77385 15
      vertex -2.62429 -2.46437 15
      vertex -0.936907 -4.91144 15
    endloop
  endfacet
  facet normal 0 0 1
    outer loop
      vertex -2.62429 -2.46437 15
      vertex -2.91246 -2.11603 15
      vertex -0.936907 -4.91144 15
    endloop
  endfacet
  facet normal 0 0 1
    outer loop
      vertex -3.1547 -1.73431 15
      vertex -3.34719 -1.32525 15
      vertex -4.96057 0.626666 15
    endloop
  endfacet
  facet normal 0 0 1
    outer loop
      vertex -1.11246 -3.4238 15
      vertex -1.5328 -3.25738 15
      vertex 0.313953 -4.99013 15
    endloop
  endfacet
  facet normal 0 0 1
    outer loop
      vertex -3.4869 -0.895284 15
      vertex -3.57161 -0.4512 15
      vertex -4.96057 0.626666 15
    endloop
  endfacet
  facet normal 0 0 1
    outer loop
      vertex 0.226046 -3.5929 15
      vertex -0.226046 -3.5929 15
      vertex 1.54508 -4.75528 15
    endloop
  endfacet
  facet normal 0 0 1
    outer loop
      vertex -3.57161 -0.4512 15
      vertex -3.6 0 15
      vertex -4.96057 0.626666 15
    endloop
  endfacet
  facet normal 0 0 1
    outer loop
      vertex 1.11246 -3.4238 15
      vertex 0.674573 -3.53623 15
      vertex 2.1289 -4.52413 15
    endloop
  endfacet
  facet normal 0 0 1
    outer loop
      vertex 2.29473 -2.77385 15
      vertex 1.92898 -3.03958 15
      vertex 3.64484 -3.42274 15
    endloop
  endfacet
  facet normal 0 0 1
    outer loop
      vertex -3.6 0 15
      vertex -3.57161 0.4512 15
      vertex -4.96057 0.626666 15
    endloop
  endfacet
endsolid OpenSCAD_Model
